<svg width="984.9800292968749px" height="147.68000183105468px" xmlns="http://www.w3.org/2000/svg" viewBox="-242.49001464843747 1.159999084472659 984.9800292968749 147.68000183105468" style="background: rgb(40, 41, 47);" preserveAspectRatio="xMidYMid"><defs><linearGradient id="editing-shiny-gradient" x1="0.5782172325201155" x2="0.42178276747988447" y1="0.9938441702975689" y2="0.00615582970243117" gradientUnits="objectBoundingBox"><stop offset="0.0" stop-color="#337ba3"></stop><stop offset="0.5" stop-color="#2d98c2"></stop><stop offset="1.0" stop-color="#ffffff"></stop></linearGradient><linearGradient id="editing-shiny-gradient2" x1="0" x2="0" y1="0" y2="1"><stop offset="0.2" stop-color="#fff" stop-opacity="0.8"></stop><stop offset="0.8" stop-color="#fff" stop-opacity="0"></stop></linearGradient><filter id="editing-shiny2" x="-100%" y="-100%" width="300%" height="300%"><feMorphology operator="erode" radius="2"></feMorphology></filter><filter id="editing-shiny" x="-100%" y="-100%" width="300%" height="300%"><feFlood flood-color="#fff" result="flood"></feFlood><feConvolveMatrix in="SourceGraphic" result="conv" order="8,8" divisor="1" kernelMatrix="0 0 0 0 0 0 0 0 0 0 0 1 1 0 0 0 0 0 0 1 1 0 0 0 0 0 1 0 0 1 0 0 0 0 1 0 0 1 0 0 0 1 0 0 0 0 1 0 0 1 1 0 0 1 1 0 0 0 0 1 1 0 0 0 "></feConvolveMatrix><feOffset dx="0" dy="4" in="conv" result="offset"></feOffset><feComposite operator="in" in="flood" in2="offset" result="comp"></feComposite><feGaussianBlur in="offset" stdDeviation="3" result="shadow"></feGaussianBlur><feColorMatrix in="shadow" type="matrix" values="0.7 0 0 0 0  0 0.7 0 0 0  0 0 0.7 0 0  0 0 0 0.3 0" result="dark-shadow"></feColorMatrix><feOffset dx="0" dy="4" in="dark-shadow" result="offset-shadow"></feOffset><feOffset dx="0" dy="2" in="conv" result="offset-2"></feOffset><feComposite operator="out" in="offset" in2="offset-2" result="edge-diff"></feComposite><feGaussianBlur in="edge-diff" stdDeviation="1" result="edge-blur"></feGaussianBlur><feColorMatrix in="edge-blur" result="edge-shadow" type="matrix" values="0 0 0 0 0  0 0 0 0 0  0 0 0 0 0  0 0 0 0.5 0"></feColorMatrix><feComposite operator="in" in="edge-shadow" in2="offset" result="edge-shadow-in"></feComposite><feOffset dx="0" dy="1" in="edge-shadow-in" result="edge-shadow-final"></feOffset><feMerge result="out"><feMergeNode in="offset-shadow"></feMergeNode><feMergeNode in="comp"></feMergeNode><feMergeNode in="edge-shadow-final"></feMergeNode><feMergeNode in="SourceGraphic"></feMergeNode></feMerge></filter></defs><g filter="url(#editing-shiny)"><g transform="translate(-106.7349910736084, 111.28000450134277)"><path d="M7.01 0L7.01-54.62L46.81-54.62L46.81-46.81L14.82-46.81L14.82-31.19L42.12-31.19L42.12-23.38L14.82-23.38L14.82 0L7.01 0ZM56.94-56.18L64.40-56.18L64.40 0L56.94 0L56.94-56.18ZM76.90-7.50L76.90-40.56L84.36-40.56L84.36-7.50L105.27-7.50L105.27-40.56L112.77-40.56L112.77 0L105.27 0L105.27-6.86L105.27-6.86Q105.16-5.45 104.51-4.19L104.51-4.19L104.51-4.19Q103.86-2.93 102.85-2.00L102.85-2.00L102.85-2.00Q101.84-1.07 100.55-0.53L100.55-0.53L100.55-0.53Q99.25 0 97.80 0L97.80 0L84.36 0L84.36 0Q82.84 0 81.47-0.59L81.47-0.59L81.47-0.59Q80.09-1.18 79.09-2.19L79.09-2.19L79.09-2.19Q78.08-3.20 77.49-4.57L77.49-4.57L77.49-4.57Q76.90-5.94 76.90-7.50L76.90-7.50ZM122.90-33.06L122.90-40.56L132.81-40.56L132.81-53.05L140.31-53.05L140.31-40.56L153.64-40.56L153.64-33.06L140.31-33.06L140.31-7.50L153.64-7.50L153.64 0L140.31 0L140.31 0Q138.79 0 137.41-0.59L137.41-0.59L137.41-0.59Q136.04-1.18 135.01-2.19L135.01-2.19L135.01-2.19Q133.99-3.20 133.40-4.57L133.40-4.57L133.40-4.57Q132.81-5.94 132.81-7.50L132.81-7.50L132.81-33.06L122.90-33.06ZM163.77-33.06L163.77-40.56L173.67-40.56L173.67-53.05L181.17-53.05L181.17-40.56L194.50-40.56L194.50-33.06L181.17-33.06L181.17-7.50L194.50-7.50L194.50 0L181.17 0L181.17 0Q179.65 0 178.28-0.59L178.28-0.59L178.28-0.59Q176.91-1.18 175.88-2.19L175.88-2.19L175.88-2.19Q174.85-3.20 174.26-4.57L174.26-4.57L174.26-4.57Q173.67-5.94 173.67-7.50L173.67-7.50L173.67-33.06L163.77-33.06ZM241.31-33.06L241.31-16.45L214.46-16.45L214.46-7.50L241.31-7.50L241.31 0L214.46 0L214.46 0Q212.94 0 211.57-0.59L211.57-0.59L211.57-0.59Q210.20-1.18 209.19-2.19L209.19-2.19L209.19-2.19Q208.18-3.20 207.59-4.57L207.59-4.57L207.59-4.57Q207.00-5.94 207.00-7.50L207.00-7.50L207.00-33.06L207.00-33.06Q207.00-34.62 207.59-35.99L207.59-35.99L207.59-35.99Q208.18-37.36 209.19-38.37L209.19-38.37L209.19-38.37Q210.20-39.38 211.57-39.97L211.57-39.97L211.57-39.97Q212.94-40.56 214.46-40.56L214.46-40.56L233.81-40.56L233.81-40.56Q235.37-40.56 236.74-39.97L236.74-39.97L236.74-39.97Q238.11-39.38 239.12-38.37L239.12-38.37L239.12-38.37Q240.13-37.36 240.72-35.99L240.72-35.99L240.72-35.99Q241.31-34.62 241.31-33.06L241.31-33.06ZM233.81-33.06L214.46-33.06L214.46-23.96L233.81-23.96L233.81-33.06ZM276.73-33.06L261.27-33.06L261.27 0L253.80 0L253.80-40.56L261.27-40.56L261.27-33.40L261.27-33.40Q261.35-34.89 261.96-36.20L261.96-36.20L261.96-36.20Q262.56-37.51 263.57-38.49L263.57-38.49L263.57-38.49Q264.58-39.46 265.92-40.01L265.92-40.01L265.92-40.01Q267.25-40.56 268.77-40.56L268.77-40.56L276.73-40.56L276.73-40.56Q278.29-40.56 279.65-39.97L279.65-39.97L279.65-39.97Q281.00-39.38 282.03-38.37L282.03-38.37L282.03-38.37Q283.05-37.36 283.65-35.99L283.65-35.99L283.65-35.99Q284.24-34.62 284.24-33.06L284.24-33.06L284.24-26.20L276.73-26.20L276.73-33.06ZM325.52-7.81L345.48-7.81L345.48-7.81Q350.92-7.81 353.86-10.74L353.86-10.74L353.86-10.74Q356.79-13.67 356.79-19.12L356.79-19.12L356.79-35.50L356.79-35.50Q356.79-38.16 356.03-40.26L356.03-40.26L356.03-40.26Q355.27-42.35 353.80-43.82L353.80-43.82L353.80-43.82Q352.33-45.28 350.24-46.05L350.24-46.05L350.24-46.05Q348.14-46.81 345.48-46.81L345.48-46.81L325.52-46.81L325.52-7.81ZM345.48 0L317.71 0L317.71-54.62L345.48-54.62L345.48-54.62Q349.86-54.62 353.38-53.26L353.38-53.26L353.38-53.26Q356.90-51.91 359.40-49.42L359.40-49.42L359.40-49.42Q361.89-46.92 363.24-43.38L363.24-43.38L363.24-43.38Q364.60-39.84 364.60-35.50L364.60-35.50L364.60-19.12L364.60-19.12Q364.60-14.78 363.24-11.24L363.24-11.24L363.24-11.24Q361.89-7.69 359.40-5.20L359.40-5.20L359.40-5.20Q356.90-2.70 353.38-1.35L353.38-1.35L353.38-1.35Q349.86 0 345.48 0L345.48 0ZM410.64-33.06L410.64-16.45L383.79-16.45L383.79-7.50L410.64-7.50L410.64 0L383.79 0L383.79 0Q382.27 0 380.90-0.59L380.90-0.59L380.90-0.59Q379.53-1.18 378.52-2.19L378.52-2.19L378.52-2.19Q377.51-3.20 376.92-4.57L376.92-4.57L376.92-4.57Q376.33-5.94 376.33-7.50L376.33-7.50L376.33-33.06L376.33-33.06Q376.33-34.62 376.92-35.99L376.92-35.99L376.92-35.99Q377.51-37.36 378.52-38.37L378.52-38.37L378.52-38.37Q379.53-39.38 380.90-39.97L380.90-39.97L380.90-39.97Q382.27-40.56 383.79-40.56L383.79-40.56L403.14-40.56L403.14-40.56Q404.70-40.56 406.07-39.97L406.07-39.97L406.07-39.97Q407.44-39.38 408.45-38.37L408.45-38.37L408.45-38.37Q409.46-37.36 410.05-35.99L410.05-35.99L410.05-35.99Q410.64-34.62 410.64-33.06L410.64-33.06ZM403.14-33.06L383.79-33.06L383.79-23.96L403.14-23.96L403.14-33.06ZM442.48 0L434.67 0L418.45-40.56L426.26-40.56L438.56-8.99L450.90-40.56L458.71-40.56L442.48 0ZM500.83-33.06L500.83-16.45L473.98-16.45L473.98-7.50L500.83-7.50L500.83 0L473.98 0L473.98 0Q472.46 0 471.08-0.59L471.08-0.59L471.08-0.59Q469.71-1.18 468.70-2.19L468.70-2.19L468.70-2.19Q467.70-3.20 467.10-4.57L467.10-4.57L467.10-4.57Q466.51-5.94 466.51-7.50L466.51-7.50L466.51-33.06L466.51-33.06Q466.51-34.62 467.10-35.99L467.10-35.99L467.10-35.99Q467.70-37.36 468.70-38.37L468.70-38.37L468.70-38.37Q469.71-39.38 471.08-39.97L471.08-39.97L471.08-39.97Q472.46-40.56 473.98-40.56L473.98-40.56L493.33-40.56L493.33-40.56Q494.89-40.56 496.26-39.97L496.26-39.97L496.26-39.97Q497.63-39.38 498.64-38.37L498.64-38.37L498.64-38.37Q499.65-37.36 500.24-35.99L500.24-35.99L500.24-35.99Q500.83-34.62 500.83-33.06L500.83-33.06ZM493.33-33.06L473.98-33.06L473.98-23.96L493.33-23.96L493.33-33.06ZM513.32-56.18L520.79-56.18L520.79 0L513.32 0L513.32-56.18ZM568.36-33.06L568.36-7.50L568.36-7.50Q568.36-5.94 567.77-4.57L567.77-4.57L567.77-4.57Q567.18-3.20 566.17-2.19L566.17-2.19L566.17-2.19Q565.16-1.18 563.81-0.59L563.81-0.59L563.81-0.59Q562.45 0 560.89 0L560.89 0L540.74 0L540.74 0Q539.22 0 537.85-0.59L537.85-0.59L537.85-0.59Q536.48-1.18 535.47-2.19L535.47-2.19L535.47-2.19Q534.46-3.20 533.87-4.57L533.87-4.57L533.87-4.57Q533.28-5.94 533.28-7.50L533.28-7.50L533.28-33.06L533.28-33.06Q533.28-34.62 533.87-35.99L533.87-35.99L533.87-35.99Q534.46-37.36 535.47-38.37L535.47-38.37L535.47-38.37Q536.48-39.38 537.85-39.97L537.85-39.97L537.85-39.97Q539.22-40.56 540.74-40.56L540.74-40.56L560.89-40.56L560.89-40.56Q562.45-40.56 563.81-39.97L563.81-39.97L563.81-39.97Q565.16-39.38 566.17-38.37L566.17-38.37L566.17-38.37Q567.18-37.36 567.77-35.99L567.77-35.99L567.77-35.99Q568.36-34.62 568.36-33.06L568.36-33.06ZM560.89-33.06L540.74-33.06L540.74-7.50L560.89-7.50L560.89-33.06ZM616.73-33.06L616.73-7.50L616.73-7.50Q616.73-5.94 616.14-4.57L616.14-4.57L616.14-4.57Q615.54-3.20 614.54-2.19L614.54-2.19L614.54-2.19Q613.53-1.18 612.16-0.59L612.16-0.59L612.16-0.59Q610.78 0 609.22 0L609.22 0L588.31 0L588.31 16.38L580.85 16.38L580.85-40.56L588.31-40.56L588.31-33.71L588.31-33.71Q588.43-35.15 589.08-36.39L589.08-36.39L589.08-36.39Q589.72-37.63 590.71-38.56L590.71-38.56L590.71-38.56Q591.70-39.50 593.02-40.03L593.02-40.03L593.02-40.03Q594.33-40.56 595.82-40.56L595.82-40.56L609.22-40.56L609.22-40.56Q610.78-40.56 612.16-39.97L612.16-39.97L612.16-39.97Q613.53-39.38 614.54-38.37L614.54-38.37L614.54-38.37Q615.54-37.36 616.14-35.99L616.14-35.99L616.14-35.99Q616.73-34.62 616.73-33.06L616.73-33.06ZM588.31-7.50L609.22-7.50L609.22-33.06L588.31-33.06L588.31-7.50ZM663.53-33.06L663.53-16.45L636.68-16.45L636.68-7.50L663.53-7.50L663.53 0L636.68 0L636.68 0Q635.16 0 633.79-0.59L633.79-0.59L633.79-0.59Q632.42-1.18 631.41-2.19L631.41-2.19L631.41-2.19Q630.40-3.20 629.81-4.57L629.81-4.57L629.81-4.57Q629.22-5.94 629.22-7.50L629.22-7.50L629.22-33.06L629.22-33.06Q629.22-34.62 629.81-35.99L629.81-35.99L629.81-35.99Q630.40-37.36 631.41-38.37L631.41-38.37L631.41-38.37Q632.42-39.38 633.79-39.97L633.79-39.97L633.79-39.97Q635.16-40.56 636.68-40.56L636.68-40.56L656.03-40.56L656.03-40.56Q657.59-40.56 658.96-39.97L658.96-39.97L658.96-39.97Q660.33-39.38 661.34-38.37L661.34-38.37L661.34-38.37Q662.35-37.36 662.94-35.99L662.94-35.99L662.94-35.99Q663.53-34.62 663.53-33.06L663.53-33.06ZM656.03-33.06L636.68-33.06L636.68-23.96L656.03-23.96L656.03-33.06ZM698.95-33.06L683.49-33.06L683.49 0L676.03 0L676.03-40.56L683.49-40.56L683.49-33.40L683.49-33.40Q683.57-34.89 684.18-36.20L684.18-36.20L684.18-36.20Q684.79-37.51 685.79-38.49L685.79-38.49L685.79-38.49Q686.80-39.46 688.14-40.01L688.14-40.01L688.14-40.01Q689.47-40.56 690.99-40.56L690.99-40.56L698.95-40.56L698.95-40.56Q700.51-40.56 701.87-39.97L701.87-39.97L701.87-39.97Q703.22-39.38 704.25-38.37L704.25-38.37L704.25-38.37Q705.28-37.36 705.87-35.99L705.87-35.99L705.87-35.99Q706.46-34.62 706.46-33.06L706.46-33.06L706.46-26.20L698.95-26.20L698.95-33.06Z" fill="url(#editing-shiny-gradient)"></path></g></g><g filter="url(#editing-shiny2)"><g transform="translate(-106.73498344421387, 111.28000068664551)"><path d="M7.01 0L7.01-54.62L46.81-54.62L46.81-46.81L14.82-46.81L14.82-31.19L42.12-31.19L42.12-23.38L14.82-23.38L14.82 0L7.01 0ZM56.94-56.18L64.40-56.18L64.40 0L56.94 0L56.94-56.18ZM76.90-7.50L76.90-40.56L84.36-40.56L84.36-7.50L105.27-7.50L105.27-40.56L112.77-40.56L112.77 0L105.27 0L105.27-6.86L105.27-6.86Q105.16-5.45 104.51-4.19L104.51-4.19L104.51-4.19Q103.86-2.93 102.85-2.00L102.85-2.00L102.85-2.00Q101.84-1.07 100.55-0.53L100.55-0.53L100.55-0.53Q99.25 0 97.80 0L97.80 0L84.36 0L84.36 0Q82.84 0 81.47-0.59L81.47-0.59L81.47-0.59Q80.09-1.18 79.09-2.19L79.09-2.19L79.09-2.19Q78.08-3.20 77.49-4.57L77.49-4.57L77.49-4.57Q76.90-5.94 76.90-7.50L76.90-7.50ZM122.90-33.06L122.90-40.56L132.81-40.56L132.81-53.05L140.31-53.05L140.31-40.56L153.64-40.56L153.64-33.06L140.31-33.06L140.31-7.50L153.64-7.50L153.64 0L140.31 0L140.31 0Q138.79 0 137.41-0.59L137.41-0.59L137.41-0.59Q136.04-1.18 135.01-2.19L135.01-2.19L135.01-2.19Q133.99-3.20 133.40-4.57L133.40-4.57L133.40-4.57Q132.81-5.94 132.81-7.50L132.81-7.50L132.81-33.06L122.90-33.06ZM163.77-33.06L163.77-40.56L173.67-40.56L173.67-53.05L181.17-53.05L181.17-40.56L194.50-40.56L194.50-33.06L181.17-33.06L181.17-7.50L194.50-7.50L194.50 0L181.17 0L181.17 0Q179.65 0 178.28-0.59L178.28-0.59L178.28-0.59Q176.91-1.18 175.88-2.19L175.88-2.19L175.88-2.19Q174.85-3.20 174.26-4.57L174.26-4.57L174.26-4.57Q173.67-5.94 173.67-7.50L173.67-7.50L173.67-33.06L163.77-33.06ZM241.31-33.06L241.31-16.45L214.46-16.45L214.46-7.50L241.31-7.50L241.31 0L214.46 0L214.46 0Q212.94 0 211.57-0.59L211.57-0.59L211.57-0.59Q210.20-1.18 209.19-2.19L209.19-2.19L209.19-2.19Q208.18-3.20 207.59-4.57L207.59-4.57L207.59-4.57Q207.00-5.94 207.00-7.50L207.00-7.50L207.00-33.06L207.00-33.06Q207.00-34.62 207.59-35.99L207.59-35.99L207.59-35.99Q208.18-37.36 209.19-38.37L209.19-38.37L209.19-38.37Q210.20-39.38 211.57-39.97L211.57-39.97L211.57-39.97Q212.94-40.56 214.46-40.56L214.46-40.56L233.81-40.56L233.81-40.56Q235.37-40.56 236.74-39.97L236.74-39.97L236.74-39.97Q238.11-39.38 239.12-38.37L239.12-38.37L239.12-38.37Q240.13-37.36 240.72-35.99L240.72-35.99L240.72-35.99Q241.31-34.62 241.31-33.06L241.31-33.06ZM233.81-33.06L214.46-33.06L214.46-23.96L233.81-23.96L233.81-33.06ZM276.73-33.06L261.27-33.06L261.27 0L253.80 0L253.80-40.56L261.27-40.56L261.27-33.40L261.27-33.40Q261.35-34.89 261.96-36.20L261.96-36.20L261.96-36.20Q262.56-37.51 263.57-38.49L263.57-38.49L263.57-38.49Q264.58-39.46 265.92-40.01L265.92-40.01L265.92-40.01Q267.25-40.56 268.77-40.56L268.77-40.56L276.73-40.56L276.73-40.56Q278.29-40.56 279.65-39.97L279.65-39.97L279.65-39.97Q281.00-39.38 282.03-38.37L282.03-38.37L282.03-38.37Q283.05-37.36 283.65-35.99L283.65-35.99L283.65-35.99Q284.24-34.62 284.24-33.06L284.24-33.06L284.24-26.20L276.73-26.20L276.73-33.06ZM325.52-7.81L345.48-7.81L345.48-7.81Q350.92-7.81 353.86-10.74L353.86-10.74L353.86-10.74Q356.79-13.67 356.79-19.12L356.79-19.12L356.79-35.50L356.79-35.50Q356.79-38.16 356.03-40.26L356.03-40.26L356.03-40.26Q355.27-42.35 353.80-43.82L353.80-43.82L353.80-43.82Q352.33-45.28 350.24-46.05L350.24-46.05L350.24-46.05Q348.14-46.81 345.48-46.81L345.48-46.81L325.52-46.81L325.52-7.81ZM345.48 0L317.71 0L317.71-54.62L345.48-54.62L345.48-54.62Q349.86-54.62 353.38-53.26L353.38-53.26L353.38-53.26Q356.90-51.91 359.40-49.42L359.40-49.42L359.40-49.42Q361.89-46.92 363.24-43.38L363.24-43.38L363.24-43.38Q364.60-39.84 364.60-35.50L364.60-35.50L364.60-19.12L364.60-19.12Q364.60-14.78 363.24-11.24L363.24-11.24L363.24-11.24Q361.89-7.69 359.40-5.20L359.40-5.20L359.40-5.20Q356.90-2.70 353.38-1.35L353.38-1.35L353.38-1.35Q349.86 0 345.48 0L345.48 0ZM410.64-33.06L410.64-16.45L383.79-16.45L383.79-7.50L410.64-7.50L410.64 0L383.79 0L383.79 0Q382.27 0 380.90-0.59L380.90-0.59L380.90-0.59Q379.53-1.18 378.52-2.19L378.52-2.19L378.52-2.19Q377.51-3.20 376.92-4.57L376.92-4.57L376.92-4.57Q376.33-5.94 376.33-7.50L376.33-7.50L376.33-33.06L376.33-33.06Q376.33-34.62 376.92-35.99L376.92-35.99L376.92-35.99Q377.51-37.36 378.52-38.37L378.52-38.37L378.52-38.37Q379.53-39.38 380.90-39.97L380.90-39.97L380.90-39.97Q382.27-40.56 383.79-40.56L383.79-40.56L403.14-40.56L403.14-40.56Q404.70-40.56 406.07-39.97L406.07-39.97L406.07-39.97Q407.44-39.38 408.45-38.37L408.45-38.37L408.45-38.37Q409.46-37.36 410.05-35.99L410.05-35.99L410.05-35.99Q410.64-34.62 410.64-33.06L410.64-33.06ZM403.14-33.06L383.79-33.06L383.79-23.96L403.14-23.96L403.14-33.06ZM442.48 0L434.67 0L418.45-40.56L426.26-40.56L438.56-8.99L450.90-40.56L458.71-40.56L442.48 0ZM500.83-33.06L500.83-16.45L473.98-16.45L473.98-7.50L500.83-7.50L500.83 0L473.98 0L473.98 0Q472.46 0 471.08-0.59L471.08-0.59L471.08-0.59Q469.71-1.18 468.70-2.19L468.70-2.19L468.70-2.19Q467.70-3.20 467.10-4.57L467.10-4.57L467.10-4.57Q466.51-5.94 466.51-7.50L466.51-7.50L466.51-33.06L466.51-33.06Q466.51-34.62 467.10-35.99L467.10-35.99L467.10-35.99Q467.70-37.36 468.70-38.37L468.70-38.37L468.70-38.37Q469.71-39.38 471.08-39.97L471.08-39.97L471.08-39.97Q472.46-40.56 473.98-40.56L473.98-40.56L493.33-40.56L493.33-40.56Q494.89-40.56 496.26-39.97L496.26-39.97L496.26-39.97Q497.63-39.38 498.64-38.37L498.64-38.37L498.64-38.37Q499.65-37.36 500.24-35.99L500.24-35.99L500.24-35.99Q500.83-34.62 500.83-33.06L500.83-33.06ZM493.33-33.06L473.98-33.06L473.98-23.96L493.33-23.96L493.33-33.06ZM513.32-56.18L520.79-56.18L520.79 0L513.32 0L513.32-56.18ZM568.36-33.06L568.36-7.50L568.36-7.50Q568.36-5.94 567.77-4.57L567.77-4.57L567.77-4.57Q567.18-3.20 566.17-2.19L566.17-2.19L566.17-2.19Q565.16-1.18 563.81-0.59L563.81-0.59L563.81-0.59Q562.45 0 560.89 0L560.89 0L540.74 0L540.74 0Q539.22 0 537.85-0.59L537.85-0.59L537.85-0.59Q536.48-1.18 535.47-2.19L535.47-2.19L535.47-2.19Q534.46-3.20 533.87-4.57L533.87-4.57L533.87-4.57Q533.28-5.94 533.28-7.50L533.28-7.50L533.28-33.06L533.28-33.06Q533.28-34.62 533.87-35.99L533.87-35.99L533.87-35.99Q534.46-37.36 535.47-38.37L535.47-38.37L535.47-38.37Q536.48-39.38 537.85-39.97L537.85-39.97L537.85-39.97Q539.22-40.56 540.74-40.56L540.74-40.56L560.89-40.56L560.89-40.56Q562.45-40.56 563.81-39.97L563.81-39.97L563.81-39.97Q565.16-39.38 566.17-38.37L566.17-38.37L566.17-38.37Q567.18-37.36 567.77-35.99L567.77-35.99L567.77-35.99Q568.36-34.62 568.36-33.06L568.36-33.06ZM560.89-33.06L540.74-33.06L540.74-7.50L560.89-7.50L560.89-33.06ZM616.73-33.06L616.73-7.50L616.73-7.50Q616.73-5.94 616.14-4.57L616.14-4.57L616.14-4.57Q615.54-3.20 614.54-2.19L614.54-2.19L614.54-2.19Q613.53-1.18 612.16-0.59L612.16-0.59L612.16-0.59Q610.78 0 609.22 0L609.22 0L588.31 0L588.31 16.38L580.85 16.38L580.85-40.56L588.31-40.56L588.31-33.71L588.31-33.71Q588.43-35.15 589.08-36.39L589.08-36.39L589.08-36.39Q589.72-37.63 590.71-38.56L590.71-38.56L590.71-38.56Q591.70-39.50 593.02-40.03L593.02-40.03L593.02-40.03Q594.33-40.56 595.82-40.56L595.82-40.56L609.22-40.56L609.22-40.56Q610.78-40.56 612.16-39.97L612.16-39.97L612.16-39.97Q613.53-39.38 614.54-38.37L614.54-38.37L614.54-38.37Q615.54-37.36 616.14-35.99L616.14-35.99L616.14-35.99Q616.73-34.62 616.73-33.06L616.73-33.06ZM588.31-7.50L609.22-7.50L609.22-33.06L588.31-33.06L588.31-7.50ZM663.53-33.06L663.53-16.45L636.68-16.45L636.68-7.50L663.53-7.50L663.53 0L636.68 0L636.68 0Q635.16 0 633.79-0.59L633.79-0.59L633.79-0.59Q632.42-1.18 631.41-2.19L631.41-2.19L631.41-2.19Q630.40-3.20 629.81-4.57L629.81-4.57L629.81-4.57Q629.22-5.94 629.22-7.50L629.22-7.50L629.22-33.06L629.22-33.06Q629.22-34.62 629.81-35.99L629.81-35.99L629.81-35.99Q630.40-37.36 631.41-38.37L631.41-38.37L631.41-38.37Q632.42-39.38 633.79-39.97L633.79-39.97L633.79-39.97Q635.16-40.56 636.68-40.56L636.68-40.56L656.03-40.56L656.03-40.56Q657.59-40.56 658.96-39.97L658.96-39.97L658.96-39.97Q660.33-39.38 661.34-38.37L661.34-38.37L661.34-38.37Q662.35-37.36 662.94-35.99L662.94-35.99L662.94-35.99Q663.53-34.62 663.53-33.06L663.53-33.06ZM656.03-33.06L636.68-33.06L636.68-23.96L656.03-23.96L656.03-33.06ZM698.95-33.06L683.49-33.06L683.49 0L676.03 0L676.03-40.56L683.49-40.56L683.49-33.40L683.49-33.40Q683.57-34.89 684.18-36.20L684.18-36.20L684.18-36.20Q684.79-37.51 685.79-38.49L685.79-38.49L685.79-38.49Q686.80-39.46 688.14-40.01L688.14-40.01L688.14-40.01Q689.47-40.56 690.99-40.56L690.99-40.56L698.95-40.56L698.95-40.56Q700.51-40.56 701.87-39.97L701.87-39.97L701.87-39.97Q703.22-39.38 704.25-38.37L704.25-38.37L704.25-38.37Q705.28-37.36 705.87-35.99L705.87-35.99L705.87-35.99Q706.46-34.62 706.46-33.06L706.46-33.06L706.46-26.20L698.95-26.20L698.95-33.06Z" fill="url(#editing-shiny-gradient2)"></path></g></g><style>text {
  font-size: 64px;
  font-family: Arial Black;
  dominant-baseline: central;
  text-anchor: middle;
}</style></svg>