<svg width="1182.830029296875px" height="213.92000732421874px" xmlns="http://www.w3.org/2000/svg" viewBox="-341.4150146484375 -31.960003662109372 1182.830029296875 213.92000732421874" style="background: none;" preserveAspectRatio="xMidYMid"><defs><filter id="editing-vintage" x="-100%" y="-100%" width="300%" height="300%"><feConvolveMatrix in="SourceGraphic" result="extrude" order="6,6" divisor="1" kernelMatrix="1,0,0,0,0,0,0,1,0,0,0,0,0,0,1,0,0,0,0,0,0,1,0,0,0,0,0,0,1,0,0,0,0,0,0,1"> </feConvolveMatrix><feFlood flood-color="#2b5267" result="flood-extrude"></feFlood><feComposite operator="in" in="flood-extrude" in2="extrude" result="extrude-color"></feComposite><feOffset dx="3" dy="3" in="extrude-color" result="extrude-offset"></feOffset><feColorMatrix in="SourceGraphic" result="stroke" type="matrix" values="0 0 0 0 0 0 0 0 0 0 0 0 0 0 0 0 1 0 0 0 "></feColorMatrix><feColorMatrix in="SourceGraphic" result="fill" type="matrix" values="0 0 0 0 0 0 0 0 0 0 0 0 0 0 0 1 0 0 1 0 "></feColorMatrix><feConvolveMatrix in="stroke" result="inner-shadow" order="5,5" divisor="1" kernelMatrix="1 0 0 0 0 0 1 0 0 0 0 0 1 0 0 0 0 0 1 0 0 0 0 0 1 "></feConvolveMatrix><feOffset dx="1" dy="1" in="inner-shadow" result="offset"></feOffset><feComposite operator="in" in="offset" in2="SourceAlpha" result="comp"></feComposite><feFlood flood-color="#2b5267" result="flood3"></feFlood><feComposite operator="in" in="flood3" in2="comp" result="comp2"></feComposite><feColorMatrix in="comp2" result="comp3" type="matrix" values="1 0 0 0 0 0 1 0 0 0 0 0 1 0 0 0 0 0 0.5 0 "></feColorMatrix><feFlood flood-color="#74ceff" result="flood1"></feFlood><feComposite operator="in" in="flood1" in2="fill" result="fill2"></feComposite><feFlood flood-color="#fff" result="flood2"></feFlood><feComposite operator="in" in="flood2" in2="stroke" result="stroke2"></feComposite><feMerge result="obj"><feMergeNode in="extrude-offset"></feMergeNode><feMergeNode in="fill2"></feMergeNode><feMergeNode in="comp3"></feMergeNode></feMerge><feConvolveMatrix in="SourceAlpha" result="shadow" order="6,6" divisor="1" kernelMatrix="1,0,0,0,0,0,0,1,0,0,0,0,0,0,1,0,0,0,0,0,0,1,0,0,0,0,0,0,1,0,0,0,0,0,0,1"></feConvolveMatrix><feOffset dx="9" dy="9" in="shadow" result="shadow-offset"></feOffset><feFlood flood-color="rgba(0%,0%,0%,0.502)" result="flood-shadow"></feFlood><feComposite operator="in" in="flood-shadow" in2="shadow-offset" result="shadow-color"></feComposite><feMerge><feMergeNode in="shadow-color"></feMergeNode><feMergeNode in="obj"></feMergeNode></feMerge></filter></defs><g transform="translate(-6,-6)"><g filter="url(#editing-vintage)"><g transform="translate(-178.10998904705048, 125.29500913619995)"><path d="M52.28-40.74L49.66-25.61L23.86-25.61L19.40 0L1.84 0L14.16-69.84L62.86-69.84L60.14-54.71L28.91-54.71L26.48-40.74L52.28-40.74ZM78.57-14.94L78.57-14.94L78.57-14.94Q78.57-12.42 81.14-12.42L81.14-12.42L81.14-12.42Q83.71-12.42 85.46-13.39L85.46-13.39L84.97-2.43L84.97-2.43Q80.32 1.36 74.50 1.36L74.50 1.36L74.50 1.36Q65.67 1.36 63.05-2.72L63.05-2.72L63.05-2.72Q61.40-5.33 61.40-8.44L61.40-8.44L61.40-8.44Q61.40-11.54 61.79-13.87L61.79-13.87L72.36-73.62L88.85-73.62L78.67-16.10L78.67-16.10Q78.57-15.52 78.57-14.94ZM138.22-14.94L138.22-14.94L138.22-14.94Q138.22-12.42 140.80-12.42L140.80-12.42L140.80-12.42Q143.37-12.42 145.11-13.39L145.11-13.39L144.63-2.43L144.63-2.43Q139.97 1.36 134.15 1.36L134.15 1.36L134.15 1.36Q123.19 1.36 122.22-7.08L122.22-7.08L122.22-7.08Q116.40 1.36 106.55 1.36L106.55 1.36L106.55 1.36Q96.71 1.36 93.80-3.10L93.80-3.10L93.80-3.10Q91.86-5.92 91.86-9.51L91.86-9.51L91.86-9.51Q91.86-13.10 92.44-16.10L92.44-16.10L97.87-46.66L114.36-46.66L109.80-20.86L109.80-20.86Q109.51-19.11 109.51-17.36L109.51-17.36L109.51-17.36Q109.51-12.71 114.75-12.71L114.75-12.71L114.75-12.71Q119.12-12.71 121.74-15.71L121.74-15.71L127.26-46.66L143.75-46.66L138.32-16.10L138.32-16.10Q138.22-15.52 138.22-14.94ZM171.88 1.36L171.88 1.36L171.88 1.36Q160.63 1.36 155.69-3.69L155.69-3.69L155.69-3.69Q152.00-7.37 152.00-13.58L152.00-13.58L152.00-13.58Q152.00-15.62 152.39-17.95L152.39-17.95L158.98-55.48L176.73-62.86L173.92-46.66L200.69-46.66L198.27-32.98L171.50-32.98L169.56-22.02L169.56-22.02Q169.17-20.18 169.17-18.72L169.17-18.72L169.17-18.72Q169.17-12.61 174.99-12.61L174.99-12.61L174.99-12.61Q178.09-12.61 180.18-15.23L180.18-15.23L180.18-15.23Q182.26-17.85 183.04-22.21L183.04-22.21L199.14-22.21L199.14-22.21Q195.07 1.36 171.88 1.36ZM225.14 1.36L225.14 1.36L225.14 1.36Q213.88 1.36 208.94-3.69L208.94-3.69L208.94-3.69Q205.25-7.37 205.25-13.58L205.25-13.58L205.25-13.58Q205.25-15.62 205.64-17.95L205.64-17.95L212.24-55.48L229.99-62.86L227.17-46.66L253.95-46.66L251.52-32.98L224.75-32.98L222.81-22.02L222.81-22.02Q222.42-20.18 222.42-18.72L222.42-18.72L222.42-18.72Q222.42-12.61 228.24-12.61L228.24-12.61L228.24-12.61Q231.34-12.61 233.43-15.23L233.43-15.23L233.43-15.23Q235.52-17.85 236.29-22.21L236.29-22.21L252.39-22.21L252.39-22.21Q248.32 1.36 225.14 1.36ZM277.23 1.36L277.23 1.36L277.23 1.36Q257.05 1.36 257.05-12.61L257.05-12.61L257.05-12.61Q257.05-14.55 257.44-16.78L257.44-16.78L259.47-28.81L259.47-28.81Q261.12-38.12 268.06-43.12L268.06-43.12L268.06-43.12Q275.00-48.11 286.44-48.11L286.44-48.11L286.44-48.11Q305.94-48.11 305.94-33.37L305.94-33.37L305.94-33.37Q305.94-31.23 305.55-28.71L305.55-28.71L304.39-21.82L274.80-21.82L274.41-19.59L274.41-19.59Q274.22-18.43 274.22-17.46L274.22-17.46L274.22-17.46Q274.22-12.13 280.52-12.13L280.52-12.13L280.52-12.13Q282.85-12.13 284.50-13.58L284.50-13.58L284.50-13.58Q286.15-15.04 286.44-16.98L286.44-16.98L302.54-16.78L302.54-16.78Q299.34 1.36 277.23 1.36ZM275.77-27.74L288.87-27.74L288.87-27.74Q289.25-29.39 289.25-30.80L289.25-30.80L289.25-30.80Q289.25-32.20 287.99-33.66L287.99-33.66L287.99-33.66Q286.73-35.11 283.97-35.11L283.97-35.11L283.97-35.11Q281.20-35.11 278.92-33.27L278.92-33.27L278.92-33.27Q276.64-31.43 275.77-27.74L275.77-27.74ZM358.22-36.76L358.22-36.76L358.22-36.76Q358.22-33.47 357.11-30.36L357.11-30.36L357.11-30.36Q355.99-27.26 354.92-25.80L354.92-25.80L353.86-24.44L339.21-24.44L339.21-24.44Q341.63-26.68 341.63-29.97L341.63-29.97L341.63-29.97Q341.63-31.72 340.52-32.83L340.52-32.83L340.52-32.83Q339.40-33.95 337.46-33.95L337.46-33.95L337.46-33.95Q334.16-33.95 331.74-30.65L331.74-30.65L326.31 0L309.82 0L318.06-46.66L333.39-46.66L332.22-40.16L332.22-40.16Q337.75-48.02 345.61-48.02L345.61-48.02L345.61-48.02Q351.92-48.02 355.07-45.01L355.07-45.01L355.07-45.01Q358.22-42.00 358.22-36.76ZM396.34-69.84L423.50-69.84L423.50-69.84Q436.21-69.84 441.64-63.44L441.64-63.44L441.64-63.44Q445.62-58.59 445.62-51.31L445.62-51.31L445.62-51.31Q445.62-48.69 445.13-45.78L445.13-45.78L441.35-24.15L441.35-24.15Q439.41-13.19 431.84-6.60L431.84-6.60L431.84-6.60Q424.28 0 412.25 0L412.25 0L384.02 0L396.34-69.84ZM417.39-54.71L417.39-54.71L411.09-54.71L404.20-15.13L413.41-15.13L413.41-15.13Q417.97-15.13 420.54-17.61L420.54-17.61L420.54-17.61Q423.11-20.08 424.08-25.71L424.08-25.71L426.90-41.61L426.90-41.61Q427.28-43.75 427.28-45.49L427.28-45.49L427.28-45.49Q427.28-54.71 417.39-54.71ZM468.80 1.36L468.80 1.36L468.80 1.36Q448.63 1.36 448.63-12.61L448.63-12.61L448.63-12.61Q448.63-14.55 449.01-16.78L449.01-16.78L451.05-28.81L451.05-28.81Q452.70-38.12 459.63-43.12L459.63-43.12L459.63-43.12Q466.57-48.11 478.02-48.11L478.02-48.11L478.02-48.11Q497.51-48.11 497.51-33.37L497.51-33.37L497.51-33.37Q497.51-31.23 497.13-28.71L497.13-28.71L495.96-21.82L466.38-21.82L465.99-19.59L465.99-19.59Q465.79-18.43 465.79-17.46L465.79-17.46L465.79-17.46Q465.79-12.13 472.10-12.13L472.10-12.13L472.10-12.13Q474.43-12.13 476.08-13.58L476.08-13.58L476.08-13.58Q477.72-15.04 478.02-16.98L478.02-16.98L494.12-16.78L494.12-16.78Q490.92 1.36 468.80 1.36ZM467.35-27.74L480.44-27.74L480.44-27.74Q480.83-29.39 480.83-30.80L480.83-30.80L480.83-30.80Q480.83-32.20 479.57-33.66L479.57-33.66L479.57-33.66Q478.31-35.11 475.54-35.11L475.54-35.11L475.54-35.11Q472.78-35.11 470.50-33.27L470.50-33.27L470.50-33.27Q468.22-31.43 467.35-27.74L467.35-27.74ZM535.44-46.66L551.93-46.66L551.93-46.66Q553.29-42.58 553.29-35.84L553.29-35.84L553.29-35.84Q553.29-29.10 551.64-22.89L551.64-22.89L551.64-22.89Q549.99-16.68 546.64-11.11L546.64-11.11L546.64-11.11Q543.30-5.53 537.33-2.09L537.33-2.09L537.33-2.09Q531.37 1.36 523.61 1.36L523.61 1.36L523.61 1.36Q511.48 1.36 506.82-3.59L506.82-3.59L506.82-3.59Q503.72-6.89 503.72-13.68L503.72-13.68L503.72-13.68Q503.72-16.88 504.50-20.95L504.50-20.95L509.06-46.66L525.55-46.66L520.99-20.86L520.99-20.86Q520.70-19.40 520.70-18.24L520.70-18.24L520.70-18.24Q520.70-12.71 526.42-12.71L526.42-12.71L526.42-12.71Q536.51-12.71 536.51-33.85L536.51-33.85L536.51-33.85Q536.51-38.80 535.73-44.81L535.73-44.81L535.44-46.66ZM578.31 1.36L578.31 1.36L578.31 1.36Q558.14 1.36 558.14-12.61L558.14-12.61L558.14-12.61Q558.14-14.55 558.53-16.78L558.53-16.78L560.56-28.81L560.56-28.81Q562.21-38.12 569.15-43.12L569.15-43.12L569.15-43.12Q576.08-48.11 587.53-48.11L587.53-48.11L587.53-48.11Q607.03-48.11 607.03-33.37L607.03-33.37L607.03-33.37Q607.03-31.23 606.64-28.71L606.64-28.71L605.47-21.82L575.89-21.82L575.50-19.59L575.50-19.59Q575.31-18.43 575.31-17.46L575.31-17.46L575.31-17.46Q575.31-12.13 581.61-12.13L581.61-12.13L581.61-12.13Q583.94-12.13 585.59-13.58L585.59-13.58L585.59-13.58Q587.24-15.04 587.53-16.98L587.53-16.98L603.63-16.78L603.63-16.78Q600.43 1.36 578.31 1.36ZM576.86-27.74L589.95-27.74L589.95-27.74Q590.34-29.39 590.34-30.80L590.34-30.80L590.34-30.80Q590.34-32.20 589.08-33.66L589.08-33.66L589.08-33.66Q587.82-35.11 585.06-35.11L585.06-35.11L585.06-35.11Q582.29-35.11 580.01-33.27L580.01-33.27L580.01-33.27Q577.73-31.43 576.86-27.74L576.86-27.74ZM630.31-14.94L630.31-14.94L630.31-14.94Q630.31-12.42 632.88-12.42L632.88-12.42L632.88-12.42Q635.45-12.42 637.19-13.39L637.19-13.39L636.71-2.43L636.71-2.43Q632.05 1.36 626.23 1.36L626.23 1.36L626.23 1.36Q617.40 1.36 614.79-2.72L614.79-2.72L614.79-2.72Q613.14-5.33 613.14-8.44L613.14-8.44L613.14-8.44Q613.14-11.54 613.52-13.87L613.52-13.87L624.10-73.62L640.59-73.62L630.40-16.10L630.40-16.10Q630.31-15.52 630.31-14.94ZM672.21-48.02L672.21-48.02L672.21-48.02Q682.69-48.02 688.02-43.46L688.02-43.46L688.02-43.46Q692.19-39.87 692.19-33.47L692.19-33.47L692.19-33.47Q692.19-31.33 691.71-28.81L691.71-28.81L689.67-17.46L689.67-17.46Q687.83-7.18 681.09-2.91L681.09-2.91L681.09-2.91Q674.34 1.36 663.09 1.36L663.09 1.36L663.09 1.36Q651.84 1.36 646.60-2.91L646.60-2.91L646.60-2.91Q642.72-6.11 642.72-12.51L642.72-12.51L642.72-12.51Q642.72-14.74 643.21-17.46L643.21-17.46L645.24-28.81L645.24-28.81Q648.64-48.02 672.21-48.02ZM673.57-19.59L674.83-26.87L674.83-26.87Q675.02-27.84 675.02-29.34L675.02-29.34L675.02-29.34Q675.02-30.85 673.76-32.69L673.76-32.69L673.76-32.69Q672.50-34.53 669.35-34.53L669.35-34.53L669.35-34.53Q666.20-34.53 664.06-32.45L664.06-32.45L664.06-32.45Q661.93-30.36 661.35-26.87L661.35-26.87L660.09-19.59L660.09-19.59Q659.89-18.62 659.89-17.12L659.89-17.12L659.89-17.12Q659.89-15.62 661.15-13.87L661.15-13.87L661.15-13.87Q662.41-12.13 665.57-12.13L665.57-12.13L665.57-12.13Q668.72-12.13 670.85-14.31L670.85-14.31L670.85-14.31Q672.99-16.49 673.57-19.59L673.57-19.59ZM731.57-47.92L731.57-47.92L731.57-47.92Q741.47-47.92 745.25-42.68L745.25-42.68L745.25-42.68Q747.97-39.09 747.97-33.56L747.97-33.56L747.97-33.56Q747.97-31.33 747.48-28.81L747.48-28.81L745.54-17.46L745.54-17.46Q743.89-8.25 738.46-3.44L738.46-3.44L738.46-3.44Q733.03 1.36 724.88 1.36L724.88 1.36L724.88 1.36Q716.73 1.36 713.53-3.01L713.53-3.01L708.29 26.97L691.80 26.97L704.80-46.66L719.74-46.66L719.25-44.04L719.25-44.04Q723.81-47.92 731.57-47.92ZM721.49-12.61L721.49-12.61L721.49-12.61Q724.20-12.61 726.53-14.36L726.53-14.36L726.53-14.36Q728.86-16.10 729.44-19.59L729.44-19.59L730.70-26.87L730.70-26.87Q730.89-27.84 730.89-29.29L730.89-29.29L730.89-29.29Q730.89-30.75 729.63-32.40L729.63-32.40L729.63-32.40Q728.37-34.05 725.27-34.05L725.27-34.05L725.27-34.05Q720.22-34.05 718.67-31.62L718.67-31.62L715.76-15.33L715.76-15.33Q717.12-12.61 721.49-12.61ZM773.38 1.36L773.38 1.36L773.38 1.36Q753.20 1.36 753.20-12.61L753.20-12.61L753.20-12.61Q753.20-14.55 753.59-16.78L753.59-16.78L755.63-28.81L755.63-28.81Q757.28-38.12 764.21-43.12L764.21-43.12L764.21-43.12Q771.15-48.11 782.60-48.11L782.60-48.11L782.60-48.11Q802.09-48.11 802.09-33.37L802.09-33.37L802.09-33.37Q802.09-31.23 801.70-28.71L801.70-28.71L800.54-21.82L770.96-21.82L770.57-19.59L770.57-19.59Q770.37-18.43 770.37-17.46L770.37-17.46L770.37-17.46Q770.37-12.13 776.68-12.13L776.68-12.13L776.68-12.13Q779.01-12.13 780.66-13.58L780.66-13.58L780.66-13.58Q782.30-15.04 782.60-16.98L782.60-16.98L798.70-16.78L798.70-16.78Q795.50 1.36 773.38 1.36ZM771.93-27.74L785.02-27.74L785.02-27.74Q785.41-29.39 785.41-30.80L785.41-30.80L785.41-30.80Q785.41-32.20 784.15-33.66L784.15-33.66L784.15-33.66Q782.89-35.11 780.12-35.11L780.12-35.11L780.12-35.11Q777.36-35.11 775.08-33.27L775.08-33.27L775.08-33.27Q772.80-31.43 771.93-27.74L771.93-27.74ZM854.38-36.76L854.38-36.76L854.38-36.76Q854.38-33.47 853.26-30.36L853.26-30.36L853.26-30.36Q852.14-27.26 851.08-25.80L851.08-25.80L850.01-24.44L835.36-24.44L835.36-24.44Q837.79-26.68 837.79-29.97L837.79-29.97L837.79-29.97Q837.79-31.72 836.67-32.83L836.67-32.83L836.67-32.83Q835.56-33.95 833.62-33.95L833.62-33.95L833.62-33.95Q830.32-33.95 827.89-30.65L827.89-30.65L822.46 0L805.97 0L814.22-46.66L829.54-46.66L828.38-40.16L828.38-40.16Q833.91-48.02 841.77-48.02L841.77-48.02L841.77-48.02Q848.07-48.02 851.22-45.01L851.22-45.01L851.22-45.01Q854.38-42.00 854.38-36.76Z" fill="#f00" stroke="#0f0" stroke-width="1.8"></path></g></g><g><g transform="translate(-178.1099737882614, 125.29500794410706)"><path d="M52.28-40.74L49.66-25.61L23.86-25.61L19.40 0L1.84 0L14.16-69.84L62.86-69.84L60.14-54.71L28.91-54.71L26.48-40.74L52.28-40.74ZM78.57-14.94L78.57-14.94L78.57-14.94Q78.57-12.42 81.14-12.42L81.14-12.42L81.14-12.42Q83.71-12.42 85.46-13.39L85.46-13.39L84.97-2.43L84.97-2.43Q80.32 1.36 74.50 1.36L74.50 1.36L74.50 1.36Q65.67 1.36 63.05-2.72L63.05-2.72L63.05-2.72Q61.40-5.33 61.40-8.44L61.40-8.44L61.40-8.44Q61.40-11.54 61.79-13.87L61.79-13.87L72.36-73.62L88.85-73.62L78.67-16.10L78.67-16.10Q78.57-15.52 78.57-14.94ZM138.22-14.94L138.22-14.94L138.22-14.94Q138.22-12.42 140.80-12.42L140.80-12.42L140.80-12.42Q143.37-12.42 145.11-13.39L145.11-13.39L144.63-2.43L144.63-2.43Q139.97 1.36 134.15 1.36L134.15 1.36L134.15 1.36Q123.19 1.36 122.22-7.08L122.22-7.08L122.22-7.08Q116.40 1.36 106.55 1.36L106.55 1.36L106.55 1.36Q96.71 1.36 93.80-3.10L93.80-3.10L93.80-3.10Q91.86-5.92 91.86-9.51L91.86-9.51L91.86-9.51Q91.86-13.10 92.44-16.10L92.44-16.10L97.87-46.66L114.36-46.66L109.80-20.86L109.80-20.86Q109.51-19.11 109.51-17.36L109.51-17.36L109.51-17.36Q109.51-12.71 114.75-12.71L114.75-12.71L114.75-12.71Q119.12-12.71 121.74-15.71L121.74-15.71L127.26-46.66L143.75-46.66L138.32-16.10L138.32-16.10Q138.22-15.52 138.22-14.94ZM171.88 1.36L171.88 1.36L171.88 1.36Q160.63 1.36 155.69-3.69L155.69-3.69L155.69-3.69Q152.00-7.37 152.00-13.58L152.00-13.58L152.00-13.58Q152.00-15.62 152.39-17.95L152.39-17.95L158.98-55.48L176.73-62.86L173.92-46.66L200.69-46.66L198.27-32.98L171.50-32.98L169.56-22.02L169.56-22.02Q169.17-20.18 169.17-18.72L169.17-18.72L169.17-18.72Q169.17-12.61 174.99-12.61L174.99-12.61L174.99-12.61Q178.09-12.61 180.18-15.23L180.18-15.23L180.18-15.23Q182.26-17.85 183.04-22.21L183.04-22.21L199.14-22.21L199.14-22.21Q195.07 1.36 171.88 1.36ZM225.14 1.36L225.14 1.36L225.14 1.36Q213.88 1.36 208.94-3.69L208.94-3.69L208.94-3.69Q205.25-7.37 205.25-13.58L205.25-13.58L205.25-13.58Q205.25-15.62 205.64-17.95L205.64-17.95L212.24-55.48L229.99-62.86L227.17-46.66L253.95-46.66L251.52-32.98L224.75-32.98L222.81-22.02L222.81-22.02Q222.42-20.18 222.42-18.72L222.42-18.72L222.42-18.72Q222.42-12.61 228.24-12.61L228.24-12.61L228.24-12.61Q231.34-12.61 233.43-15.23L233.43-15.23L233.43-15.23Q235.52-17.85 236.29-22.21L236.29-22.21L252.39-22.21L252.39-22.21Q248.32 1.36 225.14 1.36ZM277.23 1.36L277.23 1.36L277.23 1.36Q257.05 1.36 257.05-12.61L257.05-12.61L257.05-12.61Q257.05-14.55 257.44-16.78L257.44-16.78L259.47-28.81L259.47-28.81Q261.12-38.12 268.06-43.12L268.06-43.12L268.06-43.12Q275.00-48.11 286.44-48.11L286.44-48.11L286.44-48.11Q305.94-48.11 305.94-33.37L305.94-33.37L305.94-33.37Q305.94-31.23 305.55-28.71L305.55-28.71L304.39-21.82L274.80-21.82L274.41-19.59L274.41-19.59Q274.22-18.43 274.22-17.46L274.22-17.46L274.22-17.46Q274.22-12.13 280.52-12.13L280.52-12.13L280.52-12.13Q282.85-12.13 284.50-13.58L284.50-13.58L284.50-13.58Q286.15-15.04 286.44-16.98L286.44-16.98L302.54-16.78L302.54-16.78Q299.34 1.36 277.23 1.36ZM275.77-27.74L288.87-27.74L288.87-27.74Q289.25-29.39 289.25-30.80L289.25-30.80L289.25-30.80Q289.25-32.20 287.99-33.66L287.99-33.66L287.99-33.66Q286.73-35.11 283.97-35.11L283.97-35.11L283.97-35.11Q281.20-35.11 278.92-33.27L278.92-33.27L278.92-33.27Q276.64-31.43 275.77-27.74L275.77-27.74ZM358.22-36.76L358.22-36.76L358.22-36.76Q358.22-33.47 357.11-30.36L357.11-30.36L357.11-30.36Q355.99-27.26 354.92-25.80L354.92-25.80L353.86-24.44L339.21-24.44L339.21-24.44Q341.63-26.68 341.63-29.97L341.63-29.97L341.63-29.97Q341.63-31.72 340.52-32.83L340.52-32.83L340.52-32.83Q339.40-33.95 337.46-33.95L337.46-33.95L337.46-33.95Q334.16-33.95 331.74-30.65L331.74-30.65L326.31 0L309.82 0L318.06-46.66L333.39-46.66L332.22-40.16L332.22-40.16Q337.75-48.02 345.61-48.02L345.61-48.02L345.61-48.02Q351.92-48.02 355.07-45.01L355.07-45.01L355.07-45.01Q358.22-42.00 358.22-36.76ZM396.34-69.84L423.50-69.84L423.50-69.84Q436.21-69.84 441.64-63.44L441.64-63.44L441.64-63.44Q445.62-58.59 445.62-51.31L445.62-51.31L445.62-51.31Q445.62-48.69 445.13-45.78L445.13-45.78L441.35-24.15L441.35-24.15Q439.41-13.19 431.84-6.60L431.84-6.60L431.84-6.60Q424.28 0 412.25 0L412.25 0L384.02 0L396.34-69.84ZM417.39-54.71L417.39-54.71L411.09-54.71L404.20-15.13L413.41-15.13L413.41-15.13Q417.97-15.13 420.54-17.61L420.54-17.61L420.54-17.61Q423.11-20.08 424.08-25.71L424.08-25.71L426.90-41.61L426.90-41.61Q427.28-43.75 427.28-45.49L427.28-45.49L427.28-45.49Q427.28-54.71 417.39-54.71ZM468.80 1.36L468.80 1.36L468.80 1.36Q448.63 1.36 448.63-12.61L448.63-12.61L448.63-12.61Q448.63-14.55 449.01-16.78L449.01-16.78L451.05-28.81L451.05-28.81Q452.70-38.12 459.63-43.12L459.63-43.12L459.63-43.12Q466.57-48.11 478.02-48.11L478.02-48.11L478.02-48.11Q497.51-48.11 497.51-33.37L497.51-33.37L497.51-33.37Q497.51-31.23 497.13-28.71L497.13-28.71L495.96-21.82L466.38-21.82L465.99-19.59L465.99-19.59Q465.79-18.43 465.79-17.46L465.79-17.46L465.79-17.46Q465.79-12.13 472.10-12.13L472.10-12.13L472.10-12.13Q474.43-12.13 476.08-13.58L476.08-13.58L476.08-13.58Q477.72-15.04 478.02-16.98L478.02-16.98L494.12-16.78L494.12-16.78Q490.92 1.36 468.80 1.36ZM467.35-27.74L480.44-27.74L480.44-27.74Q480.83-29.39 480.83-30.80L480.83-30.80L480.83-30.80Q480.83-32.20 479.57-33.66L479.57-33.66L479.57-33.66Q478.31-35.11 475.54-35.11L475.54-35.11L475.54-35.11Q472.78-35.11 470.50-33.27L470.50-33.27L470.50-33.27Q468.22-31.43 467.35-27.74L467.35-27.74ZM535.44-46.66L551.93-46.66L551.93-46.66Q553.29-42.58 553.29-35.84L553.29-35.84L553.29-35.84Q553.29-29.10 551.64-22.89L551.64-22.89L551.64-22.89Q549.99-16.68 546.64-11.11L546.64-11.11L546.64-11.11Q543.30-5.53 537.33-2.09L537.33-2.09L537.33-2.09Q531.37 1.36 523.61 1.36L523.61 1.36L523.61 1.36Q511.48 1.36 506.82-3.59L506.82-3.59L506.82-3.59Q503.72-6.89 503.72-13.68L503.72-13.68L503.72-13.68Q503.72-16.88 504.50-20.95L504.50-20.95L509.06-46.66L525.55-46.66L520.99-20.86L520.99-20.86Q520.70-19.40 520.70-18.24L520.70-18.24L520.70-18.24Q520.70-12.71 526.42-12.71L526.42-12.71L526.42-12.71Q536.51-12.71 536.51-33.85L536.51-33.85L536.51-33.85Q536.51-38.80 535.73-44.81L535.73-44.81L535.44-46.66ZM578.31 1.36L578.31 1.36L578.31 1.36Q558.14 1.36 558.14-12.61L558.14-12.61L558.14-12.61Q558.14-14.55 558.53-16.78L558.53-16.78L560.56-28.81L560.56-28.81Q562.21-38.12 569.15-43.12L569.15-43.12L569.15-43.12Q576.08-48.11 587.53-48.11L587.53-48.11L587.53-48.11Q607.03-48.11 607.03-33.37L607.03-33.37L607.03-33.37Q607.03-31.23 606.64-28.71L606.64-28.71L605.47-21.82L575.89-21.82L575.50-19.59L575.50-19.59Q575.31-18.43 575.31-17.46L575.31-17.46L575.31-17.46Q575.31-12.13 581.61-12.13L581.61-12.13L581.61-12.13Q583.94-12.13 585.59-13.58L585.59-13.58L585.59-13.58Q587.24-15.04 587.53-16.98L587.53-16.98L603.63-16.78L603.63-16.78Q600.43 1.36 578.31 1.36ZM576.86-27.74L589.95-27.74L589.95-27.74Q590.34-29.39 590.34-30.80L590.34-30.80L590.34-30.80Q590.34-32.20 589.08-33.66L589.08-33.66L589.08-33.66Q587.82-35.11 585.06-35.11L585.06-35.11L585.06-35.11Q582.29-35.11 580.01-33.27L580.01-33.27L580.01-33.27Q577.73-31.43 576.86-27.74L576.86-27.74ZM630.31-14.94L630.31-14.94L630.31-14.94Q630.31-12.42 632.88-12.42L632.88-12.42L632.88-12.42Q635.45-12.42 637.19-13.39L637.19-13.39L636.71-2.43L636.71-2.43Q632.05 1.36 626.23 1.36L626.23 1.36L626.23 1.36Q617.40 1.36 614.79-2.72L614.79-2.72L614.79-2.72Q613.14-5.33 613.14-8.44L613.14-8.44L613.14-8.44Q613.14-11.54 613.52-13.87L613.52-13.87L624.10-73.62L640.59-73.62L630.40-16.10L630.40-16.10Q630.31-15.52 630.31-14.94ZM672.21-48.02L672.21-48.02L672.21-48.02Q682.69-48.02 688.02-43.46L688.02-43.46L688.02-43.46Q692.19-39.87 692.19-33.47L692.19-33.47L692.19-33.47Q692.19-31.33 691.71-28.81L691.71-28.81L689.67-17.46L689.67-17.46Q687.83-7.18 681.09-2.91L681.09-2.91L681.09-2.91Q674.34 1.36 663.09 1.36L663.09 1.36L663.09 1.36Q651.84 1.36 646.60-2.91L646.60-2.91L646.60-2.91Q642.72-6.11 642.72-12.51L642.72-12.51L642.72-12.51Q642.72-14.74 643.21-17.46L643.21-17.46L645.24-28.81L645.24-28.81Q648.64-48.02 672.21-48.02ZM673.57-19.59L674.83-26.87L674.83-26.87Q675.02-27.84 675.02-29.34L675.02-29.34L675.02-29.34Q675.02-30.85 673.76-32.69L673.76-32.69L673.76-32.69Q672.50-34.53 669.35-34.53L669.35-34.53L669.35-34.53Q666.20-34.53 664.06-32.45L664.06-32.45L664.06-32.45Q661.93-30.36 661.35-26.87L661.35-26.87L660.09-19.59L660.09-19.59Q659.89-18.62 659.89-17.12L659.89-17.12L659.89-17.12Q659.89-15.62 661.15-13.87L661.15-13.87L661.15-13.87Q662.41-12.13 665.57-12.13L665.57-12.13L665.57-12.13Q668.72-12.13 670.85-14.31L670.85-14.31L670.85-14.31Q672.99-16.49 673.57-19.59L673.57-19.59ZM731.57-47.92L731.57-47.92L731.57-47.92Q741.47-47.92 745.25-42.68L745.25-42.68L745.25-42.68Q747.97-39.09 747.97-33.56L747.97-33.56L747.97-33.56Q747.97-31.33 747.48-28.81L747.48-28.81L745.54-17.46L745.54-17.46Q743.89-8.25 738.46-3.44L738.46-3.44L738.46-3.44Q733.03 1.36 724.88 1.36L724.88 1.36L724.88 1.36Q716.73 1.36 713.53-3.01L713.53-3.01L708.29 26.97L691.80 26.97L704.80-46.66L719.74-46.66L719.25-44.04L719.25-44.04Q723.81-47.92 731.57-47.92ZM721.49-12.61L721.49-12.61L721.49-12.61Q724.20-12.61 726.53-14.36L726.53-14.36L726.53-14.36Q728.86-16.10 729.44-19.59L729.44-19.59L730.70-26.87L730.70-26.87Q730.89-27.84 730.89-29.29L730.89-29.29L730.89-29.29Q730.89-30.75 729.63-32.40L729.63-32.40L729.63-32.40Q728.37-34.05 725.27-34.05L725.27-34.05L725.27-34.05Q720.22-34.05 718.67-31.62L718.67-31.62L715.76-15.33L715.76-15.33Q717.12-12.61 721.49-12.61ZM773.38 1.36L773.38 1.36L773.38 1.36Q753.20 1.36 753.20-12.61L753.20-12.61L753.20-12.61Q753.20-14.55 753.59-16.78L753.59-16.78L755.63-28.81L755.63-28.81Q757.28-38.12 764.21-43.12L764.21-43.12L764.21-43.12Q771.15-48.11 782.60-48.11L782.60-48.11L782.60-48.11Q802.09-48.11 802.09-33.37L802.09-33.37L802.09-33.37Q802.09-31.23 801.70-28.71L801.70-28.71L800.54-21.82L770.96-21.82L770.57-19.59L770.57-19.59Q770.37-18.43 770.37-17.46L770.37-17.46L770.37-17.46Q770.37-12.13 776.68-12.13L776.68-12.13L776.68-12.13Q779.01-12.13 780.66-13.58L780.66-13.58L780.66-13.58Q782.30-15.04 782.60-16.98L782.60-16.98L798.70-16.78L798.70-16.78Q795.50 1.36 773.38 1.36ZM771.93-27.74L785.02-27.74L785.02-27.74Q785.41-29.39 785.41-30.80L785.41-30.80L785.41-30.80Q785.41-32.20 784.15-33.66L784.15-33.66L784.15-33.66Q782.89-35.11 780.12-35.11L780.12-35.11L780.12-35.11Q777.36-35.11 775.08-33.27L775.08-33.27L775.08-33.27Q772.80-31.43 771.93-27.74L771.93-27.74ZM854.38-36.76L854.38-36.76L854.38-36.76Q854.38-33.47 853.26-30.36L853.26-30.36L853.26-30.36Q852.14-27.26 851.08-25.80L851.08-25.80L850.01-24.44L835.36-24.44L835.36-24.44Q837.79-26.68 837.79-29.97L837.79-29.97L837.79-29.97Q837.79-31.72 836.67-32.83L836.67-32.83L836.67-32.83Q835.56-33.95 833.62-33.95L833.62-33.95L833.62-33.95Q830.32-33.95 827.89-30.65L827.89-30.65L822.46 0L805.97 0L814.22-46.66L829.54-46.66L828.38-40.16L828.38-40.16Q833.91-48.02 841.77-48.02L841.77-48.02L841.77-48.02Q848.07-48.02 851.22-45.01L851.22-45.01L851.22-45.01Q854.38-42.00 854.38-36.76Z" fill="none" stroke="#ffffff" stroke-width="2.1"></path></g></g></g><style>text {
  font-size: 64px;
  font-family: Arial Black;
  dominant-baseline: central;
  text-anchor: middle;
}</style></svg>