<svg width="802.4450439453125px" height="120.8px" xmlns="http://www.w3.org/2000/svg" viewBox="-151.22252197265624 14.600000000000001 802.4450439453125 120.8" style="background: none;" preserveAspectRatio="xMidYMid"><defs><filter id="editing-vintage" x="-100%" y="-100%" width="300%" height="300%"><feConvolveMatrix in="SourceGraphic" result="extrude" order="9,9" divisor="1" kernelMatrix="1,0,0,0,0,0,0,0,0,0,1,0,0,0,0,0,0,0,0,0,1,0,0,0,0,0,0,0,0,0,1,0,0,0,0,0,0,0,0,0,1,0,0,0,0,0,0,0,0,0,1,0,0,0,0,0,0,0,0,0,1,0,0,0,0,0,0,0,0,0,1,0,0,0,0,0,0,0,0,0,1"> </feConvolveMatrix><feFlood flood-color="#a60b6e" result="flood-extrude"></feFlood><feComposite operator="in" in="flood-extrude" in2="extrude" result="extrude-color"></feComposite><feOffset dx="5" dy="5" in="extrude-color" result="extrude-offset"></feOffset><feColorMatrix in="SourceGraphic" result="stroke" type="matrix" values="0 0 0 0 0 0 0 0 0 0 0 0 0 0 0 0 1 0 0 0 "></feColorMatrix><feColorMatrix in="SourceGraphic" result="fill" type="matrix" values="0 0 0 0 0 0 0 0 0 0 0 0 0 0 0 1 0 0 1 0 "></feColorMatrix><feConvolveMatrix in="stroke" result="inner-shadow" order="5,5" divisor="1" kernelMatrix="1 0 0 0 0 0 1 0 0 0 0 0 1 0 0 0 0 0 1 0 0 0 0 0 1 "></feConvolveMatrix><feOffset dx="1" dy="1" in="inner-shadow" result="offset"></feOffset><feComposite operator="in" in="offset" in2="SourceAlpha" result="comp"></feComposite><feFlood flood-color="#a60b6e" result="flood3"></feFlood><feComposite operator="in" in="flood3" in2="comp" result="comp2"></feComposite><feColorMatrix in="comp2" result="comp3" type="matrix" values="1 0 0 0 0 0 1 0 0 0 0 0 1 0 0 0 0 0 0.5 0 "></feColorMatrix><feFlood flood-color="#ed5cae" result="flood1"></feFlood><feComposite operator="in" in="flood1" in2="fill" result="fill2"></feComposite><feFlood flood-color="#fff" result="flood2"></feFlood><feComposite operator="in" in="flood2" in2="stroke" result="stroke2"></feComposite><feMerge result="obj"><feMergeNode in="extrude-offset"></feMergeNode><feMergeNode in="fill2"></feMergeNode><feMergeNode in="comp3"></feMergeNode></feMerge><feConvolveMatrix in="SourceAlpha" result="shadow" order="9,9" divisor="1" kernelMatrix="1,0,0,0,0,0,0,0,0,0,1,0,0,0,0,0,0,0,0,0,1,0,0,0,0,0,0,0,0,0,1,0,0,0,0,0,0,0,0,0,1,0,0,0,0,0,0,0,0,0,1,0,0,0,0,0,0,0,0,0,1,0,0,0,0,0,0,0,0,0,1,0,0,0,0,0,0,0,0,0,1"></feConvolveMatrix><feOffset dx="15" dy="15" in="shadow" result="shadow-offset"></feOffset><feFlood flood-color="rgba(0%,0%,0%,0.502)" result="flood-shadow"></feFlood><feComposite operator="in" in="flood-shadow" in2="shadow-offset" result="shadow-color"></feComposite><feMerge><feMergeNode in="shadow-color"></feMergeNode><feMergeNode in="obj"></feMergeNode></feMerge></filter></defs><g transform="translate(-9,-9)"><g filter="url(#editing-vintage)"><g transform="translate(-35.85499086976051, 104.79000282287598)"><path d="M24.96-4.80L24.96-4.80L24.96-4.80Q24.96-9.28 26.75-18.24L26.75-18.24L17.28-18.24L13.76 0L0.38 0L8.51-42.24L22.02-42.24L18.30-23.36L27.78-23.36L31.30-42.24L44.80-42.24L44.80-42.24Q43.90-37.50 42.75-32.19L42.75-32.19L40.58-21.76L40.58-21.76Q38.14-9.60 38.14-4.29L38.14-4.29L38.14-4.29Q38.14-2.11 38.85-0.90L38.85-0.90L38.85-0.90Q35.65 1.28 31.90 1.28L31.90 1.28L31.90 1.28Q28.16 1.28 26.56-0.51L26.56-0.51L26.56-0.51Q24.96-2.30 24.96-4.80ZM61.70-3.52L61.70-3.52L61.70-3.52Q59.71 1.28 53.38 1.28L53.38 1.28L53.38 1.28Q50.11 1.28 48.06-0.96L48.06-0.96L48.06-0.96Q46.34-2.94 46.34-4.93L46.34-4.93L46.34-4.93Q46.34-10.11 48.70-20.22L48.70-20.22L51.07-32.64L64.06-33.92L60.16-13.70L60.16-13.70Q59.07-8.96 59.07-7.30L59.07-7.30L59.07-7.30Q59.07-3.65 61.70-3.52ZM52.22-41.54L52.22-41.54L52.22-41.54Q52.22-44.03 54.30-45.38L54.30-45.38L54.30-45.38Q56.38-46.72 59.39-46.72L59.39-46.72L59.39-46.72Q62.40-46.72 64.22-45.38L64.22-45.38L64.22-45.38Q66.05-44.03 66.05-41.54L66.05-41.54L66.05-41.54Q66.05-39.04 64.03-37.76L64.03-37.76L64.03-37.76Q62.02-36.48 59.01-36.48L59.01-36.48L59.01-36.48Q56-36.48 54.11-37.76L54.11-37.76L54.11-37.76Q52.22-39.04 52.22-41.54ZM61.50 8.26L61.50 8.26L61.50 8.26Q66.43 2.94 66.43-3.71L66.43-3.71L66.43-3.71Q66.43-5.76 65.73-7.68L65.73-7.68L65.73-7.68Q66.50-8.19 68.03-8.54L68.03-8.54L68.03-8.54Q69.57-8.90 70.72-8.90L70.72-8.90L70.72-8.90Q73.54-8.90 75.20-7.39L75.20-7.39L75.20-7.39Q76.86-5.89 76.86-3.26L76.86-3.26L76.86-3.26Q76.86-0.64 75.84 1.47L75.84 1.47L75.84 1.47Q74.82 3.58 73.09 5.18L73.09 5.18L73.09 5.18Q69.38 8.64 64.26 8.64L64.26 8.64L64.26 8.64Q63.23 8.64 61.50 8.26ZM109.31 0L95.36 0L103.49-42.24L117.57-42.24L109.31 0ZM128.90-29.50L122.11-29.50L122.11-29.50Q124.48-37.70 124.61-46.34L124.61-46.34L126.46-46.59L126.46-46.59Q127.42-46.72 128.13-46.72L128.13-46.72L128.13-46.72Q130.94-46.72 132.48-45.34L132.48-45.34L132.48-45.34Q134.02-43.97 134.02-41.54L134.02-41.54L134.02-41.54Q134.02-38.98 132.86-36.16L132.86-36.16L132.86-36.16Q130.82-31.17 128.90-29.50L128.90-29.50ZM179.84 1.28L179.84 1.28L179.84 1.28Q172.10 1.28 172.10-4.74L172.10-4.74L172.10-4.74Q172.10-7.36 173.22-12.45L173.22-12.45L173.22-12.45Q174.34-17.54 174.72-19.58L174.72-19.58L174.72-19.58Q175.62-24.26 175.62-25.73L175.62-25.73L175.62-25.73Q175.62-28.99 173.18-28.99L173.18-28.99L173.18-28.99Q171.58-28.99 170.05-26.78L170.05-26.78L170.05-26.78Q168.51-24.58 167.81-20.16L167.81-20.16L163.84 0L151.36 1.28L154.82-16.13L154.82-16.13Q155.39-19.01 155.90-22.27L155.90-22.27L155.90-22.27Q156.42-25.54 156.42-26.05L156.42-26.05L156.42-26.05Q156.42-28.99 154.24-28.99L154.24-28.99L154.24-28.99Q152.77-28.99 151.17-26.82L151.17-26.82L151.17-26.82Q149.57-24.64 148.67-20.16L148.67-20.16L144.77 0L132.16 1.28L138.88-32.64L149.31-33.92L148.22-27.46L148.22-27.46Q149.89-30.91 152.96-32.42L152.96-32.42L152.96-32.42Q156.03-33.92 160.83-33.92L160.83-33.92L160.83-33.92Q163.58-33.92 165.38-32.58L165.38-32.58L165.38-32.58Q167.17-31.23 167.74-29.06L167.74-29.06L167.74-29.06Q168.83-31.30 171.62-32.61L171.62-32.61L171.62-32.61Q174.40-33.92 177.82-33.92L177.82-33.92L177.82-33.92Q181.25-33.92 182.94-33.18L182.94-33.18L182.94-33.18Q184.64-32.45 185.66-31.23L185.66-31.23L185.66-31.23Q187.39-28.99 187.39-24.90L187.39-24.90L187.39-24.90Q187.39-20.86 185.66-12.48L185.66-12.48L185.66-12.48Q184.77-8.38 184.77-6.88L184.77-6.88L184.77-6.88Q184.77-5.38 185.63-4.48L185.63-4.48L185.63-4.48Q186.50-3.58 187.78-3.46L187.78-3.46L187.78-3.46Q187.14-1.28 184.93 0L184.93 0L184.93 0Q182.72 1.28 179.84 1.28ZM233.98 1.28L233.98 1.28L233.98 1.28Q225.79 1.28 225.02-10.37L225.02-10.37L214.02-10.37L214.02-10.37Q212.74-7.42 211.84-4.86L211.84-4.86L210.18 0L201.22 0L221.38-42.24L235.14-42.24L237.82-11.14L237.82-11.14Q238.46-4.42 241.02-2.43L241.02-2.43L241.02-2.43Q239.17 1.28 233.98 1.28ZM219.52-23.17L216.00-15.04L224.83-15.04L224.06-31.49L224.06-33.22L219.52-23.17ZM260.03-3.52L260.03-3.52L260.03-3.52Q258.05 1.28 251.71 1.28L251.71 1.28L251.71 1.28Q248.51 1.28 246.46-0.96L246.46-0.96L246.46-0.96Q244.80-2.82 244.80-4.93L244.80-4.93L244.80-4.93Q244.80-9.73 247.04-20.22L247.04-20.22L251.71-44.80L264.70-46.08L258.50-13.70L258.50-13.70Q257.41-8.96 257.41-7.30L257.41-7.30L257.41-7.30Q257.41-3.65 260.03-3.52ZM268.26-1.92L268.26-1.92L268.26-1.92Q266.75-3.58 266.08-6.21L266.08-6.21L266.08-6.21Q265.41-8.83 265.41-13.12L265.41-13.12L265.41-13.12Q265.41-17.41 266.88-21.31L266.88-21.31L266.88-21.31Q268.35-25.22 271.04-28.03L271.04-28.03L271.04-28.03Q276.54-33.92 285.63-33.92L285.63-33.92L285.63-33.92Q288.90-33.92 291.26-32.83L291.26-32.83L302.21-33.92L297.47-8.96L297.47-8.96Q297.28-8.19 297.28-6.78L297.28-6.78L297.28-6.78Q297.28-5.38 298.14-4.48L298.14-4.48L298.14-4.48Q299.01-3.58 300.29-3.46L300.29-3.46L300.29-3.46Q299.65-1.28 297.31 0L297.31 0L297.31 0Q294.98 1.28 292.35 1.28L292.35 1.28L292.35 1.28Q289.73 1.28 287.97 0.29L287.97 0.29L287.97 0.29Q286.21-0.70 285.70-2.37L285.70-2.37L285.70-2.37Q284.67-0.77 282.50 0.26L282.50 0.26L282.50 0.26Q280.32 1.28 277.41 1.28L277.41 1.28L277.41 1.28Q274.50 1.28 272.13 0.51L272.13 0.51L272.13 0.51Q269.76-0.26 268.26-1.92ZM281.76-27.90L281.76-27.90L281.76-27.90Q281.02-26.75 280.38-24.80L280.38-24.80L280.38-24.80Q279.74-22.85 278.69-17.63L278.69-17.63L278.69-17.63Q277.63-12.42 277.63-8.70L277.63-8.70L277.63-8.70Q277.63-4.99 278.21-3.90L278.21-3.90L278.21-3.90Q278.78-2.82 279.81-2.82L279.81-2.82L279.81-2.82Q281.86-2.82 283.36-4.77L283.36-4.77L283.36-4.77Q284.86-6.72 285.44-10.18L285.44-10.18L288.83-28.93L288.83-28.93Q287.49-30.08 285.92-30.08L285.92-30.08L285.92-30.08Q284.35-30.08 283.42-29.57L283.42-29.57L283.42-29.57Q282.50-29.06 281.76-27.90ZM308.19-1.92L308.19-1.92L308.19-1.92Q306.69-3.58 306.02-6.21L306.02-6.21L306.02-6.21Q305.34-8.83 305.34-13.12L305.34-13.12L305.34-13.12Q305.34-17.41 306.82-21.31L306.82-21.31L306.82-21.31Q308.29-25.22 310.98-28.03L310.98-28.03L310.98-28.03Q316.48-33.92 325.57-33.92L325.57-33.92L325.57-33.92Q328.83-33.92 331.20-32.83L331.20-32.83L342.14-33.92L337.41-8.96L337.41-8.96Q337.22-8.19 337.22-6.78L337.22-6.78L337.22-6.78Q337.22-5.38 338.08-4.48L338.08-4.48L338.08-4.48Q338.94-3.58 340.22-3.46L340.22-3.46L340.22-3.46Q339.58-1.28 337.25 0L337.25 0L337.25 0Q334.91 1.28 332.29 1.28L332.29 1.28L332.29 1.28Q329.66 1.28 327.90 0.29L327.90 0.29L327.90 0.29Q326.14-0.70 325.63-2.37L325.63-2.37L325.63-2.37Q324.61-0.77 322.43 0.26L322.43 0.26L322.43 0.26Q320.26 1.28 317.34 1.28L317.34 1.28L317.34 1.28Q314.43 1.28 312.06 0.51L312.06 0.51L312.06 0.51Q309.70-0.26 308.19-1.92ZM321.70-27.90L321.70-27.90L321.70-27.90Q320.96-26.75 320.32-24.80L320.32-24.80L320.32-24.80Q319.68-22.85 318.62-17.63L318.62-17.63L318.62-17.63Q317.57-12.42 317.57-8.70L317.57-8.70L317.57-8.70Q317.57-4.99 318.14-3.90L318.14-3.90L318.14-3.90Q318.72-2.82 319.74-2.82L319.74-2.82L319.74-2.82Q321.79-2.82 323.30-4.77L323.30-4.77L323.30-4.77Q324.80-6.72 325.38-10.18L325.38-10.18L328.77-28.93L328.77-28.93Q327.42-30.08 325.86-30.08L325.86-30.08L325.86-30.08Q324.29-30.08 323.36-29.57L323.36-29.57L323.36-29.57Q322.43-29.06 321.70-27.90ZM386.88 1.28L386.88 1.28L386.88 1.28Q378.69 1.28 377.92-10.37L377.92-10.37L366.91-10.37L366.91-10.37Q365.63-7.42 364.74-4.86L364.74-4.86L363.07 0L354.11 0L374.27-42.24L388.03-42.24L390.72-11.14L390.72-11.14Q391.36-4.42 393.92-2.43L393.92-2.43L393.92-2.43Q392.06 1.28 386.88 1.28ZM372.42-23.17L368.90-15.04L377.73-15.04L376.96-31.49L376.96-33.22L372.42-23.17ZM417.98-7.23L417.98-7.23L417.98-7.23Q414.66-3.78 408.58-3.78L408.58-3.78L408.58-3.78Q400.96-3.78 399.36-9.34L399.36-9.34L399.36-9.34Q398.85-11.01 398.85-12.86L398.85-12.86L398.85-12.86Q398.85-14.72 399.23-16.64L399.23-16.64L402.24-32.64L415.23-33.92L411.71-15.30L411.71-15.30Q411.58-14.46 411.39-13.57L411.39-13.57L411.39-13.57Q411.20-12.67 411.20-11.74L411.20-11.74L411.20-11.74Q411.20-10.82 411.52-10.21L411.52-10.21L411.52-10.21Q411.84-9.60 412.29-9.22L412.29-9.22L412.29-9.22Q413.06-8.70 414.43-8.70L414.43-8.70L414.43-8.70Q415.81-8.70 416.99-10.37L416.99-10.37L416.99-10.37Q418.18-12.03 418.75-14.91L418.75-14.91L422.27-32.64L434.88-33.92L430.08-8.77L430.08-8.77Q427.71 3.52 422.85 8.38L422.85 8.38L422.85 8.38Q420.35 10.88 417.12 11.87L417.12 11.87L417.12 11.87Q413.89 12.86 409.73 12.86L409.73 12.86L409.73 12.86Q403.01 12.86 399.17 10.75L399.17 10.75L399.17 10.75Q395.33 8.64 395.33 5.12L395.33 5.12L395.33 5.12Q395.33 2.50 397.31 0.99L397.31 0.99L397.31 0.99Q399.30-0.51 402.37-0.51L402.37-0.51L402.37-0.51Q405.06-0.51 407.10 0.64L407.10 0.64L407.10 0.64Q408.32 1.34 408.90 2.24L408.90 2.24L408.90 2.24Q407.42 3.52 407.42 5.63L407.42 5.63L407.42 5.63Q407.42 8.45 409.98 8.45L409.98 8.45L409.98 8.45Q414.21 8.45 416.64-1.28L416.64-1.28L416.64-1.28Q417.34-4.16 417.98-7.23ZM483.26 1.28L483.26 1.28L483.26 1.28Q475.52 1.28 475.52-4.74L475.52-4.74L475.52-4.74Q475.52-7.36 476.64-12.45L476.64-12.45L476.64-12.45Q477.76-17.54 478.14-19.58L478.14-19.58L478.14-19.58Q479.04-24.26 479.04-25.73L479.04-25.73L479.04-25.73Q479.04-28.99 476.61-28.99L476.61-28.99L476.61-28.99Q475.01-28.99 473.47-26.78L473.47-26.78L473.47-26.78Q471.94-24.58 471.23-20.16L471.23-20.16L467.26 0L454.78 1.28L458.24-16.13L458.24-16.13Q458.82-19.01 459.33-22.27L459.33-22.27L459.33-22.27Q459.84-25.54 459.84-26.05L459.84-26.05L459.84-26.05Q459.84-28.99 457.66-28.99L457.66-28.99L457.66-28.99Q456.19-28.99 454.59-26.82L454.59-26.82L454.59-26.82Q452.99-24.64 452.10-20.16L452.10-20.16L448.19 0L435.58 1.28L442.30-32.64L452.74-33.92L451.65-27.46L451.65-27.46Q453.31-30.91 456.38-32.42L456.38-32.42L456.38-32.42Q459.46-33.92 464.26-33.92L464.26-33.92L464.26-33.92Q467.01-33.92 468.80-32.58L468.80-32.58L468.80-32.58Q470.59-31.23 471.17-29.06L471.17-29.06L471.17-29.06Q472.26-31.30 475.04-32.61L475.04-32.61L475.04-32.61Q477.82-33.92 481.25-33.92L481.25-33.92L481.25-33.92Q484.67-33.92 486.37-33.18L486.37-33.18L486.37-33.18Q488.06-32.45 489.09-31.23L489.09-31.23L489.09-31.23Q490.82-28.99 490.82-24.90L490.82-24.90L490.82-24.90Q490.82-20.86 489.09-12.48L489.09-12.48L489.09-12.48Q488.19-8.38 488.19-6.88L488.19-6.88L488.19-6.88Q488.19-5.38 489.06-4.48L489.06-4.48L489.06-4.48Q489.92-3.58 491.20-3.46L491.20-3.46L491.20-3.46Q490.56-1.28 488.35 0L488.35 0L488.35 0Q486.14 1.28 483.26 1.28ZM498.91-1.92L498.91-1.92L498.91-1.92Q497.41-3.58 496.74-6.21L496.74-6.21L496.74-6.21Q496.06-8.83 496.06-13.12L496.06-13.12L496.06-13.12Q496.06-17.41 497.54-21.31L497.54-21.31L497.54-21.31Q499.01-25.22 501.70-28.03L501.70-28.03L501.70-28.03Q507.20-33.92 516.29-33.92L516.29-33.92L516.29-33.92Q519.55-33.92 521.92-32.83L521.92-32.83L532.86-33.92L528.13-8.96L528.13-8.96Q527.94-8.19 527.94-6.78L527.94-6.78L527.94-6.78Q527.94-5.38 528.80-4.48L528.80-4.48L528.80-4.48Q529.66-3.58 530.94-3.46L530.94-3.46L530.94-3.46Q530.30-1.28 527.97 0L527.97 0L527.97 0Q525.63 1.28 523.01 1.28L523.01 1.28L523.01 1.28Q520.38 1.28 518.62 0.29L518.62 0.29L518.62 0.29Q516.86-0.70 516.35-2.37L516.35-2.37L516.35-2.37Q515.33-0.77 513.15 0.26L513.15 0.26L513.15 0.26Q510.98 1.28 508.06 1.28L508.06 1.28L508.06 1.28Q505.15 1.28 502.78 0.51L502.78 0.51L502.78 0.51Q500.42-0.26 498.91-1.92ZM512.42-27.90L512.42-27.90L512.42-27.90Q511.68-26.75 511.04-24.80L511.04-24.80L511.04-24.80Q510.40-22.85 509.34-17.63L509.34-17.63L509.34-17.63Q508.29-12.42 508.29-8.70L508.29-8.70L508.29-8.70Q508.29-4.99 508.86-3.90L508.86-3.90L508.86-3.90Q509.44-2.82 510.46-2.82L510.46-2.82L510.46-2.82Q512.51-2.82 514.02-4.77L514.02-4.77L514.02-4.77Q515.52-6.72 516.10-10.18L516.10-10.18L519.49-28.93L519.49-28.93Q518.14-30.08 516.58-30.08L516.58-30.08L516.58-30.08Q515.01-30.08 514.08-29.57L514.08-29.57L514.08-29.57Q513.15-29.06 512.42-27.90ZM563.39 1.28L563.39 1.28L563.39 1.28Q555.65 1.28 555.65-4.74L555.65-4.74L555.65-4.74Q555.71-6.40 556.22-9.22L556.22-9.22L557.38-15.10L557.38-15.10Q559.10-23.42 559.10-25.28L559.10-25.28L559.10-25.28Q559.10-28.99 556.93-28.99L556.93-28.99L556.93-28.99Q553.28-28.99 551.36-19.46L551.36-19.46L547.58 0L534.72 1.28L541.38-32.70L551.87-33.92L550.85-27.65L550.85-27.65Q553.86-33.92 563.07-33.92L563.07-33.92L563.07-33.92Q567.55-33.92 569.44-32.03L569.44-32.03L569.44-32.03Q571.33-30.14 571.33-25.92L571.33-25.92L571.33-25.92Q571.33-21.95 569.28-12.67L569.28-12.67L569.28-12.67Q568.32-8.51 568.32-6.94L568.32-6.94L568.32-6.94Q568.32-5.38 569.18-4.48L569.18-4.48L569.18-4.48Q570.05-3.58 571.33-3.46L571.33-3.46L571.33-3.46Q570.69-1.28 568.48 0L568.48 0L568.48 0Q566.27 1.28 563.39 1.28Z" fill="#f00" stroke="#0f0" stroke-width="1.8"></path></g></g><g><g transform="translate(-35.85501375794411, 104.79000663757324)"><path d="M24.96-4.80L24.96-4.80L24.96-4.80Q24.96-9.28 26.75-18.24L26.75-18.24L17.28-18.24L13.76 0L0.38 0L8.51-42.24L22.02-42.24L18.30-23.36L27.78-23.36L31.30-42.24L44.80-42.24L44.80-42.24Q43.90-37.50 42.75-32.19L42.75-32.19L40.58-21.76L40.58-21.76Q38.14-9.60 38.14-4.29L38.14-4.29L38.14-4.29Q38.14-2.11 38.85-0.90L38.85-0.90L38.85-0.90Q35.65 1.28 31.90 1.28L31.90 1.28L31.90 1.28Q28.16 1.28 26.56-0.51L26.56-0.51L26.56-0.51Q24.96-2.30 24.96-4.80ZM61.70-3.52L61.70-3.52L61.70-3.52Q59.71 1.28 53.38 1.28L53.38 1.28L53.38 1.28Q50.11 1.28 48.06-0.96L48.06-0.96L48.06-0.96Q46.34-2.94 46.34-4.93L46.34-4.93L46.34-4.93Q46.34-10.11 48.70-20.22L48.70-20.22L51.07-32.64L64.06-33.92L60.16-13.70L60.16-13.70Q59.07-8.96 59.07-7.30L59.07-7.30L59.07-7.30Q59.07-3.65 61.70-3.52ZM52.22-41.54L52.22-41.54L52.22-41.54Q52.22-44.03 54.30-45.38L54.30-45.38L54.30-45.38Q56.38-46.72 59.39-46.72L59.39-46.72L59.39-46.72Q62.40-46.72 64.22-45.38L64.22-45.38L64.22-45.38Q66.05-44.03 66.05-41.54L66.05-41.54L66.05-41.54Q66.05-39.04 64.03-37.76L64.03-37.76L64.03-37.76Q62.02-36.48 59.01-36.48L59.01-36.48L59.01-36.48Q56-36.48 54.11-37.76L54.11-37.76L54.11-37.76Q52.22-39.04 52.22-41.54ZM61.50 8.26L61.50 8.26L61.50 8.26Q66.43 2.94 66.43-3.71L66.43-3.71L66.43-3.71Q66.43-5.76 65.73-7.68L65.73-7.68L65.73-7.68Q66.50-8.19 68.03-8.54L68.03-8.54L68.03-8.54Q69.57-8.90 70.72-8.90L70.72-8.90L70.72-8.90Q73.54-8.90 75.20-7.39L75.20-7.39L75.20-7.39Q76.86-5.89 76.86-3.26L76.86-3.26L76.86-3.26Q76.86-0.64 75.84 1.47L75.84 1.47L75.84 1.47Q74.82 3.58 73.09 5.18L73.09 5.18L73.09 5.18Q69.38 8.64 64.26 8.64L64.26 8.64L64.26 8.64Q63.23 8.64 61.50 8.26ZM109.31 0L95.36 0L103.49-42.24L117.57-42.24L109.31 0ZM128.90-29.50L122.11-29.50L122.11-29.50Q124.48-37.70 124.61-46.34L124.61-46.34L126.46-46.59L126.46-46.59Q127.42-46.72 128.13-46.72L128.13-46.72L128.13-46.72Q130.94-46.72 132.48-45.34L132.48-45.34L132.48-45.34Q134.02-43.97 134.02-41.54L134.02-41.54L134.02-41.54Q134.02-38.98 132.86-36.16L132.86-36.16L132.86-36.16Q130.82-31.17 128.90-29.50L128.90-29.50ZM179.84 1.28L179.84 1.28L179.84 1.28Q172.10 1.28 172.10-4.74L172.10-4.74L172.10-4.74Q172.10-7.36 173.22-12.45L173.22-12.45L173.22-12.45Q174.34-17.54 174.72-19.58L174.72-19.58L174.72-19.58Q175.62-24.26 175.62-25.73L175.62-25.73L175.62-25.73Q175.62-28.99 173.18-28.99L173.18-28.99L173.18-28.99Q171.58-28.99 170.05-26.78L170.05-26.78L170.05-26.78Q168.51-24.58 167.81-20.16L167.81-20.16L163.84 0L151.36 1.28L154.82-16.13L154.82-16.13Q155.39-19.01 155.90-22.27L155.90-22.27L155.90-22.27Q156.42-25.54 156.42-26.05L156.42-26.05L156.42-26.05Q156.42-28.99 154.24-28.99L154.24-28.99L154.24-28.99Q152.77-28.99 151.17-26.82L151.17-26.82L151.17-26.82Q149.57-24.64 148.67-20.16L148.67-20.16L144.77 0L132.16 1.28L138.88-32.64L149.31-33.92L148.22-27.46L148.22-27.46Q149.89-30.91 152.96-32.42L152.96-32.42L152.96-32.42Q156.03-33.92 160.83-33.92L160.83-33.92L160.83-33.92Q163.58-33.92 165.38-32.58L165.38-32.58L165.38-32.58Q167.17-31.23 167.74-29.06L167.74-29.06L167.74-29.06Q168.83-31.30 171.62-32.61L171.62-32.61L171.62-32.61Q174.40-33.92 177.82-33.92L177.82-33.92L177.82-33.92Q181.25-33.92 182.94-33.18L182.94-33.18L182.94-33.18Q184.64-32.45 185.66-31.23L185.66-31.23L185.66-31.23Q187.39-28.99 187.39-24.90L187.39-24.90L187.39-24.90Q187.39-20.86 185.66-12.48L185.66-12.48L185.66-12.48Q184.77-8.38 184.77-6.88L184.77-6.88L184.77-6.88Q184.77-5.38 185.63-4.48L185.63-4.48L185.63-4.48Q186.50-3.58 187.78-3.46L187.78-3.46L187.78-3.46Q187.14-1.28 184.93 0L184.93 0L184.93 0Q182.72 1.28 179.84 1.28ZM233.98 1.28L233.98 1.28L233.98 1.28Q225.79 1.28 225.02-10.37L225.02-10.37L214.02-10.37L214.02-10.37Q212.74-7.42 211.84-4.86L211.84-4.86L210.18 0L201.22 0L221.38-42.24L235.14-42.24L237.82-11.14L237.82-11.14Q238.46-4.42 241.02-2.43L241.02-2.43L241.02-2.43Q239.17 1.28 233.98 1.28ZM219.52-23.17L216.00-15.04L224.83-15.04L224.06-31.49L224.06-33.22L219.52-23.17ZM260.03-3.52L260.03-3.52L260.03-3.52Q258.05 1.28 251.71 1.28L251.71 1.28L251.71 1.28Q248.51 1.28 246.46-0.96L246.46-0.96L246.46-0.96Q244.80-2.82 244.80-4.93L244.80-4.93L244.80-4.93Q244.80-9.73 247.04-20.22L247.04-20.22L251.71-44.80L264.70-46.08L258.50-13.70L258.50-13.70Q257.41-8.96 257.41-7.30L257.41-7.30L257.41-7.30Q257.41-3.65 260.03-3.52ZM268.26-1.92L268.26-1.92L268.26-1.92Q266.75-3.58 266.08-6.21L266.08-6.21L266.08-6.21Q265.41-8.83 265.41-13.12L265.41-13.12L265.41-13.12Q265.41-17.41 266.88-21.31L266.88-21.31L266.88-21.31Q268.35-25.22 271.04-28.03L271.04-28.03L271.04-28.03Q276.54-33.92 285.63-33.92L285.63-33.92L285.63-33.92Q288.90-33.92 291.26-32.83L291.26-32.83L302.21-33.92L297.47-8.96L297.47-8.96Q297.28-8.19 297.28-6.78L297.28-6.78L297.28-6.78Q297.28-5.38 298.14-4.48L298.14-4.48L298.14-4.48Q299.01-3.58 300.29-3.46L300.29-3.46L300.29-3.46Q299.65-1.28 297.31 0L297.31 0L297.31 0Q294.98 1.28 292.35 1.28L292.35 1.28L292.35 1.28Q289.73 1.28 287.97 0.29L287.97 0.29L287.97 0.29Q286.21-0.70 285.70-2.37L285.70-2.37L285.70-2.37Q284.67-0.77 282.50 0.26L282.50 0.26L282.50 0.26Q280.32 1.28 277.41 1.28L277.41 1.28L277.41 1.28Q274.50 1.28 272.13 0.51L272.13 0.51L272.13 0.51Q269.76-0.26 268.26-1.92ZM281.76-27.90L281.76-27.90L281.76-27.90Q281.02-26.75 280.38-24.80L280.38-24.80L280.38-24.80Q279.74-22.85 278.69-17.63L278.69-17.63L278.69-17.63Q277.63-12.42 277.63-8.70L277.63-8.70L277.63-8.70Q277.63-4.99 278.21-3.90L278.21-3.90L278.21-3.90Q278.78-2.82 279.81-2.82L279.81-2.82L279.81-2.82Q281.86-2.82 283.36-4.77L283.36-4.77L283.36-4.77Q284.86-6.72 285.44-10.18L285.44-10.18L288.83-28.93L288.83-28.93Q287.49-30.08 285.92-30.08L285.92-30.08L285.92-30.08Q284.35-30.08 283.42-29.57L283.42-29.57L283.42-29.57Q282.50-29.06 281.76-27.90ZM308.19-1.92L308.19-1.92L308.19-1.92Q306.69-3.58 306.02-6.21L306.02-6.21L306.02-6.21Q305.34-8.83 305.34-13.12L305.34-13.12L305.34-13.12Q305.34-17.41 306.82-21.31L306.82-21.31L306.82-21.31Q308.29-25.22 310.98-28.03L310.98-28.03L310.98-28.03Q316.48-33.92 325.57-33.92L325.57-33.92L325.57-33.92Q328.83-33.92 331.20-32.83L331.20-32.83L342.14-33.92L337.41-8.96L337.41-8.96Q337.22-8.19 337.22-6.78L337.22-6.78L337.22-6.78Q337.22-5.38 338.08-4.48L338.08-4.48L338.08-4.48Q338.94-3.58 340.22-3.46L340.22-3.46L340.22-3.46Q339.58-1.28 337.25 0L337.25 0L337.25 0Q334.91 1.28 332.29 1.28L332.29 1.28L332.29 1.28Q329.66 1.28 327.90 0.29L327.90 0.29L327.90 0.29Q326.14-0.70 325.63-2.37L325.63-2.37L325.63-2.37Q324.61-0.77 322.43 0.26L322.43 0.26L322.43 0.26Q320.26 1.28 317.34 1.28L317.34 1.28L317.34 1.28Q314.43 1.28 312.06 0.51L312.06 0.51L312.06 0.51Q309.70-0.26 308.19-1.92ZM321.70-27.90L321.70-27.90L321.70-27.90Q320.96-26.75 320.32-24.80L320.32-24.80L320.32-24.80Q319.68-22.85 318.62-17.63L318.62-17.63L318.62-17.63Q317.57-12.42 317.57-8.70L317.57-8.70L317.57-8.70Q317.57-4.99 318.14-3.90L318.14-3.90L318.14-3.90Q318.72-2.82 319.74-2.82L319.74-2.82L319.74-2.82Q321.79-2.82 323.30-4.77L323.30-4.77L323.30-4.77Q324.80-6.72 325.38-10.18L325.38-10.18L328.77-28.93L328.77-28.93Q327.42-30.08 325.86-30.08L325.86-30.08L325.86-30.08Q324.29-30.08 323.36-29.57L323.36-29.57L323.36-29.57Q322.43-29.06 321.70-27.90ZM386.88 1.28L386.88 1.28L386.88 1.28Q378.69 1.28 377.92-10.37L377.92-10.37L366.91-10.37L366.91-10.37Q365.63-7.42 364.74-4.86L364.74-4.86L363.07 0L354.11 0L374.27-42.24L388.03-42.24L390.72-11.14L390.72-11.14Q391.36-4.42 393.92-2.43L393.92-2.43L393.92-2.43Q392.06 1.28 386.88 1.28ZM372.42-23.17L368.90-15.04L377.73-15.04L376.96-31.49L376.96-33.22L372.42-23.17ZM417.98-7.23L417.98-7.23L417.98-7.23Q414.66-3.78 408.58-3.78L408.58-3.78L408.58-3.78Q400.96-3.78 399.36-9.34L399.36-9.34L399.36-9.34Q398.85-11.01 398.85-12.86L398.85-12.86L398.85-12.86Q398.85-14.72 399.23-16.64L399.23-16.64L402.24-32.64L415.23-33.92L411.71-15.30L411.71-15.30Q411.58-14.46 411.39-13.57L411.39-13.57L411.39-13.57Q411.20-12.67 411.20-11.74L411.20-11.74L411.20-11.74Q411.20-10.82 411.52-10.21L411.52-10.21L411.52-10.21Q411.84-9.60 412.29-9.22L412.29-9.22L412.29-9.22Q413.06-8.70 414.43-8.70L414.43-8.70L414.43-8.70Q415.81-8.70 416.99-10.37L416.99-10.37L416.99-10.37Q418.18-12.03 418.75-14.91L418.75-14.91L422.27-32.64L434.88-33.92L430.08-8.77L430.08-8.77Q427.71 3.52 422.85 8.38L422.85 8.38L422.85 8.38Q420.35 10.88 417.12 11.87L417.12 11.87L417.12 11.87Q413.89 12.86 409.73 12.86L409.73 12.86L409.73 12.86Q403.01 12.86 399.17 10.75L399.17 10.75L399.17 10.75Q395.33 8.64 395.33 5.12L395.33 5.12L395.33 5.12Q395.33 2.50 397.31 0.99L397.31 0.99L397.31 0.99Q399.30-0.51 402.37-0.51L402.37-0.51L402.37-0.51Q405.06-0.51 407.10 0.64L407.10 0.64L407.10 0.64Q408.32 1.34 408.90 2.24L408.90 2.24L408.90 2.24Q407.42 3.52 407.42 5.63L407.42 5.63L407.42 5.63Q407.42 8.45 409.98 8.45L409.98 8.45L409.98 8.45Q414.21 8.45 416.64-1.28L416.64-1.28L416.64-1.28Q417.34-4.16 417.98-7.23ZM483.26 1.28L483.26 1.28L483.26 1.28Q475.52 1.28 475.52-4.74L475.52-4.74L475.52-4.74Q475.52-7.36 476.64-12.45L476.64-12.45L476.64-12.45Q477.76-17.54 478.14-19.58L478.14-19.58L478.14-19.58Q479.04-24.26 479.04-25.73L479.04-25.73L479.04-25.73Q479.04-28.99 476.61-28.99L476.61-28.99L476.61-28.99Q475.01-28.99 473.47-26.78L473.47-26.78L473.47-26.78Q471.94-24.58 471.23-20.16L471.23-20.16L467.26 0L454.78 1.28L458.24-16.13L458.24-16.13Q458.82-19.01 459.33-22.27L459.33-22.27L459.33-22.27Q459.84-25.54 459.84-26.05L459.84-26.05L459.84-26.05Q459.84-28.99 457.66-28.99L457.66-28.99L457.66-28.99Q456.19-28.99 454.59-26.82L454.59-26.82L454.59-26.82Q452.99-24.64 452.10-20.16L452.10-20.16L448.19 0L435.58 1.28L442.30-32.64L452.74-33.92L451.65-27.46L451.65-27.46Q453.31-30.91 456.38-32.42L456.38-32.42L456.38-32.42Q459.46-33.92 464.26-33.92L464.26-33.92L464.26-33.92Q467.01-33.92 468.80-32.58L468.80-32.58L468.80-32.58Q470.59-31.23 471.17-29.06L471.17-29.06L471.17-29.06Q472.26-31.30 475.04-32.61L475.04-32.61L475.04-32.61Q477.82-33.92 481.25-33.92L481.25-33.92L481.25-33.92Q484.67-33.92 486.37-33.18L486.37-33.18L486.37-33.18Q488.06-32.45 489.09-31.23L489.09-31.23L489.09-31.23Q490.82-28.99 490.82-24.90L490.82-24.90L490.82-24.90Q490.82-20.86 489.09-12.48L489.09-12.48L489.09-12.48Q488.19-8.38 488.19-6.88L488.19-6.88L488.19-6.88Q488.19-5.38 489.06-4.48L489.06-4.48L489.06-4.48Q489.92-3.58 491.20-3.46L491.20-3.46L491.20-3.46Q490.56-1.28 488.35 0L488.35 0L488.35 0Q486.14 1.28 483.26 1.28ZM498.91-1.92L498.91-1.92L498.91-1.92Q497.41-3.58 496.74-6.21L496.74-6.21L496.74-6.21Q496.06-8.83 496.06-13.12L496.06-13.12L496.06-13.12Q496.06-17.41 497.54-21.31L497.54-21.31L497.54-21.31Q499.01-25.22 501.70-28.03L501.70-28.03L501.70-28.03Q507.20-33.92 516.29-33.92L516.29-33.92L516.29-33.92Q519.55-33.92 521.92-32.83L521.92-32.83L532.86-33.92L528.13-8.96L528.13-8.96Q527.94-8.19 527.94-6.78L527.94-6.78L527.94-6.78Q527.94-5.38 528.80-4.48L528.80-4.48L528.80-4.48Q529.66-3.58 530.94-3.46L530.94-3.46L530.94-3.46Q530.30-1.28 527.97 0L527.97 0L527.97 0Q525.63 1.28 523.01 1.28L523.01 1.28L523.01 1.28Q520.38 1.28 518.62 0.29L518.62 0.29L518.62 0.29Q516.86-0.70 516.35-2.37L516.35-2.37L516.35-2.37Q515.33-0.77 513.15 0.26L513.15 0.26L513.15 0.26Q510.98 1.28 508.06 1.28L508.06 1.28L508.06 1.28Q505.15 1.28 502.78 0.51L502.78 0.51L502.78 0.51Q500.42-0.26 498.91-1.92ZM512.42-27.90L512.42-27.90L512.42-27.90Q511.68-26.75 511.04-24.80L511.04-24.80L511.04-24.80Q510.40-22.85 509.34-17.63L509.34-17.63L509.34-17.63Q508.29-12.42 508.29-8.70L508.29-8.70L508.29-8.70Q508.29-4.99 508.86-3.90L508.86-3.90L508.86-3.90Q509.44-2.82 510.46-2.82L510.46-2.82L510.46-2.82Q512.51-2.82 514.02-4.77L514.02-4.77L514.02-4.77Q515.52-6.72 516.10-10.18L516.10-10.18L519.49-28.93L519.49-28.93Q518.14-30.08 516.58-30.08L516.58-30.08L516.58-30.08Q515.01-30.08 514.08-29.57L514.08-29.57L514.08-29.57Q513.15-29.06 512.42-27.90ZM563.39 1.28L563.39 1.28L563.39 1.28Q555.65 1.28 555.65-4.74L555.65-4.74L555.65-4.74Q555.71-6.40 556.22-9.22L556.22-9.22L557.38-15.10L557.38-15.10Q559.10-23.42 559.10-25.28L559.10-25.28L559.10-25.28Q559.10-28.99 556.93-28.99L556.93-28.99L556.93-28.99Q553.28-28.99 551.36-19.46L551.36-19.46L547.58 0L534.72 1.28L541.38-32.70L551.87-33.92L550.85-27.65L550.85-27.65Q553.86-33.92 563.07-33.92L563.07-33.92L563.07-33.92Q567.55-33.92 569.44-32.03L569.44-32.03L569.44-32.03Q571.33-30.14 571.33-25.92L571.33-25.92L571.33-25.92Q571.33-21.95 569.28-12.67L569.28-12.67L569.28-12.67Q568.32-8.51 568.32-6.94L568.32-6.94L568.32-6.94Q568.32-5.38 569.18-4.48L569.18-4.48L569.18-4.48Q570.05-3.58 571.33-3.46L571.33-3.46L571.33-3.46Q570.69-1.28 568.48 0L568.48 0L568.48 0Q566.27 1.28 563.39 1.28Z" fill="none" stroke="#ffffff" stroke-width="2.1"></path></g></g></g><style>text {
  font-size: 64px;
  font-family: Arial Black;
  dominant-baseline: central;
  text-anchor: middle;
}</style></svg>