<svg width="801.830029296875px" height="147.68000183105468px" xmlns="http://www.w3.org/2000/svg" viewBox="-150.91501464843748 1.159999084472659 801.830029296875 147.68000183105468" style="background: none;" preserveAspectRatio="xMidYMid"><defs><filter id="editing-vintage" x="-100%" y="-100%" width="300%" height="300%"><feConvolveMatrix in="SourceGraphic" result="extrude" order="9,9" divisor="1" kernelMatrix="1,0,0,0,0,0,0,0,0,0,1,0,0,0,0,0,0,0,0,0,1,0,0,0,0,0,0,0,0,0,1,0,0,0,0,0,0,0,0,0,1,0,0,0,0,0,0,0,0,0,1,0,0,0,0,0,0,0,0,0,1,0,0,0,0,0,0,0,0,0,1,0,0,0,0,0,0,0,0,0,1"> </feConvolveMatrix><feFlood flood-color="#a60b6e" result="flood-extrude"></feFlood><feComposite operator="in" in="flood-extrude" in2="extrude" result="extrude-color"></feComposite><feOffset dx="5" dy="5" in="extrude-color" result="extrude-offset"></feOffset><feColorMatrix in="SourceGraphic" result="stroke" type="matrix" values="0 0 0 0 0 0 0 0 0 0 0 0 0 0 0 0 1 0 0 0 "></feColorMatrix><feColorMatrix in="SourceGraphic" result="fill" type="matrix" values="0 0 0 0 0 0 0 0 0 0 0 0 0 0 0 1 0 0 1 0 "></feColorMatrix><feConvolveMatrix in="stroke" result="inner-shadow" order="5,5" divisor="1" kernelMatrix="1 0 0 0 0 0 1 0 0 0 0 0 1 0 0 0 0 0 1 0 0 0 0 0 1 "></feConvolveMatrix><feOffset dx="1" dy="1" in="inner-shadow" result="offset"></feOffset><feComposite operator="in" in="offset" in2="SourceAlpha" result="comp"></feComposite><feFlood flood-color="#a60b6e" result="flood3"></feFlood><feComposite operator="in" in="flood3" in2="comp" result="comp2"></feComposite><feColorMatrix in="comp2" result="comp3" type="matrix" values="1 0 0 0 0 0 1 0 0 0 0 0 1 0 0 0 0 0 0.5 0 "></feColorMatrix><feFlood flood-color="#ed5cae" result="flood1"></feFlood><feComposite operator="in" in="flood1" in2="fill" result="fill2"></feComposite><feFlood flood-color="#fff" result="flood2"></feFlood><feComposite operator="in" in="flood2" in2="stroke" result="stroke2"></feComposite><feMerge result="obj"><feMergeNode in="extrude-offset"></feMergeNode><feMergeNode in="fill2"></feMergeNode><feMergeNode in="comp3"></feMergeNode></feMerge><feConvolveMatrix in="SourceAlpha" result="shadow" order="9,9" divisor="1" kernelMatrix="1,0,0,0,0,0,0,0,0,0,1,0,0,0,0,0,0,0,0,0,1,0,0,0,0,0,0,0,0,0,1,0,0,0,0,0,0,0,0,0,1,0,0,0,0,0,0,0,0,0,1,0,0,0,0,0,0,0,0,0,1,0,0,0,0,0,0,0,0,0,1,0,0,0,0,0,0,0,0,0,1"></feConvolveMatrix><feOffset dx="15" dy="15" in="shadow" result="shadow-offset"></feOffset><feFlood flood-color="rgba(0%,0%,0%,0.502)" result="flood-shadow"></feFlood><feComposite operator="in" in="flood-shadow" in2="shadow-offset" result="shadow-color"></feComposite><feMerge><feMergeNode in="shadow-color"></feMergeNode><feMergeNode in="obj"></feMergeNode></feMerge></filter></defs><g transform="translate(-9,-9)"><g filter="url(#editing-vintage)"><g transform="translate(-36.87998843193054, 110.55000495910645)"><path d="M33.34-46.08L44.86-46.08L36.80 0L25.22 0L28.16-16.64L15.68-16.64L12.80 0L1.22 0L9.34-46.08L20.86-46.08L17.41-26.62L29.89-26.62L33.34-46.08ZM59.52-8.19L59.52-8.19L59.52-8.19Q60.99-8.19 62.14-8.83L62.14-8.83L61.82-1.60L61.82-1.60Q58.82 0.90 54.98 0.90L54.98 0.90L54.98 0.90Q49.15 0.90 47.42-1.79L47.42-1.79L47.42-1.79Q46.27-3.58 46.27-5.60L46.27-5.60L46.27-5.60Q46.27-7.62 46.53-9.15L46.53-9.15L50.37-30.78L61.25-30.78L57.66-10.62L57.66-10.62Q57.60-10.24 57.60-9.92L57.60-9.92L57.60-9.92Q57.60-8.19 59.52-8.19ZM51.65-41.22L51.65-41.22L51.65-41.22Q51.65-45.31 53.47-47.20L53.47-47.20L53.47-47.20Q55.30-49.09 59.14-49.09L59.14-49.09L59.14-49.09Q64.51-49.09 64.51-44.35L64.51-44.35L64.51-44.35Q64.51-40.32 62.69-38.46L62.69-38.46L62.69-38.46Q60.86-36.61 56.96-36.61L56.96-36.61L56.96-36.61Q51.65-36.61 51.65-41.22ZM64.96-3.71L64.96-3.71L64.96-3.71Q64.96-7.81 66.78-9.70L66.78-9.70L66.78-9.70Q68.61-11.58 72.51-11.58L72.51-11.58L72.51-11.58Q78.27-11.58 78.27-5.89L78.27-5.89L78.27-5.89Q78.27 12.93 60.48 12.93L60.48 12.93L61.31 8.32L61.31 8.32Q64.70 8.32 68.03 5.12L68.03 5.12L68.03 5.12Q69.89 3.33 70.27 0.90L70.27 0.90L70.27 0.90Q64.96 0.90 64.96-3.71ZM108.22-46.08L119.74-46.08L111.68 0L100.10 0L108.22-46.08ZM135.62-52.48L132.54-37.38L126.02-37.38L128.38-52.48L135.62-52.48ZM187.01-8.19L187.01-8.19L187.01-8.19Q188.48-8.19 189.63-8.83L189.63-8.83L189.31-1.60L189.31-1.60Q186.30 0.90 182.46 0.90L182.46 0.90L182.46 0.90Q173.76 0.90 173.76-6.40L173.76-6.40L173.76-6.40Q173.76-7.68 174.02-9.15L174.02-9.15L175.36-17.02L175.36-17.02Q175.55-18.18 175.55-19.33L175.55-19.33L175.55-19.33Q175.55-22.40 172.19-22.40L172.19-22.40L172.19-22.40Q168.83-22.40 166.91-19.78L166.91-19.78L163.46 0L152.58 0L155.58-17.02L155.58-17.02Q155.78-18.18 155.78-19.33L155.78-19.33L155.78-19.33Q155.78-22.40 152.32-22.40L152.32-22.40L152.32-22.40Q149.57-22.40 147.58-20.29L147.58-20.29L144 0L133.12 0L138.56-30.78L148.67-30.78L147.97-26.94L147.97-26.94Q151.81-31.68 157.70-31.68L157.70-31.68L157.70-31.68Q166.02-31.68 167.17-26.18L167.17-26.18L167.17-26.18Q171.01-31.68 177.44-31.68L177.44-31.68L177.44-31.68Q183.87-31.68 185.79-28.80L185.79-28.80L185.79-28.80Q187.07-26.82 187.07-24.45L187.07-24.45L187.07-24.45Q187.07-22.08 186.75-20.16L186.75-20.16L185.15-10.62L185.15-10.62Q185.09-10.24 185.09-9.92L185.09-9.92L185.09-9.92Q185.09-8.19 187.01-8.19ZM243.52 0L231.36 0L231.74-10.05L221.06-10.05L217.92 0L205.70 0L222.14-46.08L243.26-46.08L243.52 0ZM232.77-34.88L228.74-34.88L223.68-18.62L232.06-18.62L232.77-34.88ZM261.70-9.86L261.70-9.86L261.70-9.86Q261.70-8.19 263.39-8.19L263.39-8.19L263.39-8.19Q265.09-8.19 266.24-8.83L266.24-8.83L265.92-1.60L265.92-1.60Q262.85 0.90 259.01 0.90L259.01 0.90L259.01 0.90Q253.18 0.90 251.46-1.79L251.46-1.79L251.46-1.79Q250.37-3.52 250.37-5.57L250.37-5.57L250.37-5.57Q250.37-7.62 250.62-9.15L250.62-9.15L257.60-48.58L268.48-48.58L261.76-10.62L261.76-10.62Q261.70-10.24 261.70-9.86ZM300.22-9.86L300.22-9.86L300.22-9.86Q300.22-8.19 301.92-8.19L301.92-8.19L301.92-8.19Q303.62-8.19 304.77-8.83L304.77-8.83L304.45-1.60L304.45-1.60Q301.38 0.90 297.54 0.90L297.54 0.90L297.54 0.90Q290.50 0.90 289.73-4.22L289.73-4.22L289.73-4.22Q286.53 0.90 280.32 0.90L280.32 0.90L280.32 0.90Q269.82 0.90 269.82-8.13L269.82-8.13L269.82-8.13Q269.82-9.66 270.14-11.52L270.14-11.52L271.49-19.01L271.49-19.01Q272.51-24.77 276.19-28.19L276.19-28.19L276.19-28.19Q279.87-31.62 285.79-31.62L285.79-31.62L285.79-31.62Q291.71-31.62 293.82-28.86L293.82-28.86L294.14-30.78L303.87-30.78L300.29-10.62L300.29-10.62Q300.22-10.24 300.22-9.86ZM282.11-17.73L281.28-12.93L281.28-12.93Q281.15-12.35 281.15-11.33L281.15-11.33L281.15-11.33Q281.15-10.30 282.11-9.31L282.11-9.31L282.11-9.31Q283.07-8.32 285.34-8.32L285.34-8.32L285.34-8.32Q287.62-8.32 289.28-10.11L289.28-10.11L291.20-20.86L291.20-20.86Q290.50-22.46 287.87-22.46L287.87-22.46L287.87-22.46Q282.94-22.46 282.11-17.73L282.11-17.73ZM338.75-9.86L338.75-9.86L338.75-9.86Q338.75-8.19 340.45-8.19L340.45-8.19L340.45-8.19Q342.14-8.19 343.30-8.83L343.30-8.83L342.98-1.60L342.98-1.60Q339.90 0.90 336.06 0.90L336.06 0.90L336.06 0.90Q329.02 0.90 328.26-4.22L328.26-4.22L328.26-4.22Q325.06 0.90 318.85 0.90L318.85 0.90L318.85 0.90Q308.35 0.90 308.35-8.13L308.35-8.13L308.35-8.13Q308.35-9.66 308.67-11.52L308.67-11.52L310.02-19.01L310.02-19.01Q311.04-24.77 314.72-28.19L314.72-28.19L314.72-28.19Q318.40-31.62 324.32-31.62L324.32-31.62L324.32-31.62Q330.24-31.62 332.35-28.86L332.35-28.86L332.67-30.78L342.40-30.78L338.82-10.62L338.82-10.62Q338.75-10.24 338.75-9.86ZM320.64-17.73L319.81-12.93L319.81-12.93Q319.68-12.35 319.68-11.33L319.68-11.33L319.68-11.33Q319.68-10.30 320.64-9.31L320.64-9.31L320.64-9.31Q321.60-8.32 323.87-8.32L323.87-8.32L323.87-8.32Q326.14-8.32 327.81-10.11L327.81-10.11L329.73-20.86L329.73-20.86Q329.02-22.46 326.40-22.46L326.40-22.46L326.40-22.46Q321.47-22.46 320.64-17.73L320.64-17.73ZM397.38 0L385.22 0L385.60-10.05L374.91-10.05L371.78 0L359.55 0L376.00-46.08L397.12-46.08L397.38 0ZM386.62-34.88L382.59-34.88L377.54-18.62L385.92-18.62L386.62-34.88ZM418.88-30.78L415.87-13.76L415.87-13.76Q415.68-12.61 415.68-11.46L415.68-11.46L415.68-11.46Q415.68-8.38 419.14-8.38L419.14-8.38L419.14-8.38Q421.95-8.38 423.81-10.37L423.81-10.37L427.39-30.78L438.27-30.78L432.64 1.02L432.64 1.02Q431.23 9.15 426.21 13.89L426.21 13.89L426.21 13.89Q421.18 18.62 414.72 18.62L414.72 18.62L414.72 18.62Q408.26 18.62 405.41 16.26L405.41 16.26L405.41 16.26Q402.56 13.89 402.56 10.05L402.56 10.05L402.56 10.05Q402.56 4.61 409.28 0.38L409.28 0.38L409.28 0.38Q405.63-0.51 404.67-3.26L404.67-3.26L404.67-3.26Q404.10-4.80 404.10-6.72L404.10-6.72L404.10-6.72Q404.10-8.64 404.42-10.62L404.42-10.62L408.00-30.78L418.88-30.78ZM416.19 9.47L416.19 9.47L416.19 9.47Q420.35 9.47 421.63 1.92L421.63 1.92L422.27-1.79L422.27-1.79Q413.38 2.37 413.38 6.59L413.38 6.59L413.38 6.59Q413.38 7.87 414.11 8.67L414.11 8.67L414.11 8.67Q414.85 9.47 416.19 9.47ZM493.12-8.19L493.12-8.19L493.12-8.19Q494.59-8.19 495.74-8.83L495.74-8.83L495.42-1.60L495.42-1.60Q492.42 0.90 488.58 0.90L488.58 0.90L488.58 0.90Q479.87 0.90 479.87-6.40L479.87-6.40L479.87-6.40Q479.87-7.68 480.13-9.15L480.13-9.15L481.47-17.02L481.47-17.02Q481.66-18.18 481.66-19.33L481.66-19.33L481.66-19.33Q481.66-22.40 478.30-22.40L478.30-22.40L478.30-22.40Q474.94-22.40 473.02-19.78L473.02-19.78L469.57 0L458.69 0L461.70-17.02L461.70-17.02Q461.89-18.18 461.89-19.33L461.89-19.33L461.89-19.33Q461.89-22.40 458.43-22.40L458.43-22.40L458.43-22.40Q455.68-22.40 453.70-20.29L453.70-20.29L450.11 0L439.23 0L444.67-30.78L454.78-30.78L454.08-26.94L454.08-26.94Q457.92-31.68 463.81-31.68L463.81-31.68L463.81-31.68Q472.13-31.68 473.28-26.18L473.28-26.18L473.28-26.18Q477.12-31.68 483.55-31.68L483.55-31.68L483.55-31.68Q489.98-31.68 491.90-28.80L491.90-28.80L491.90-28.80Q493.18-26.82 493.18-24.45L493.18-24.45L493.18-24.45Q493.18-22.08 492.86-20.16L492.86-20.16L491.26-10.62L491.26-10.62Q491.20-10.24 491.20-9.92L491.20-9.92L491.20-9.92Q491.20-8.19 493.12-8.19ZM529.54-9.86L529.54-9.86L529.54-9.86Q529.54-8.19 531.23-8.19L531.23-8.19L531.23-8.19Q532.93-8.19 534.08-8.83L534.08-8.83L533.76-1.60L533.76-1.60Q530.69 0.90 526.85 0.90L526.85 0.90L526.85 0.90Q519.81 0.90 519.04-4.22L519.04-4.22L519.04-4.22Q515.84 0.90 509.63 0.90L509.63 0.90L509.63 0.90Q499.14 0.90 499.14-8.13L499.14-8.13L499.14-8.13Q499.14-9.66 499.46-11.52L499.46-11.52L500.80-19.01L500.80-19.01Q501.82-24.77 505.50-28.19L505.50-28.19L505.50-28.19Q509.18-31.62 515.10-31.62L515.10-31.62L515.10-31.62Q521.02-31.62 523.14-28.86L523.14-28.86L523.46-30.78L533.18-30.78L529.60-10.62L529.60-10.62Q529.54-10.24 529.54-9.86ZM511.42-17.73L510.59-12.93L510.59-12.93Q510.46-12.35 510.46-11.33L510.46-11.33L510.46-11.33Q510.46-10.30 511.42-9.31L511.42-9.31L511.42-9.31Q512.38-8.32 514.66-8.32L514.66-8.32L514.66-8.32Q516.93-8.32 518.59-10.11L518.59-10.11L520.51-20.86L520.51-20.86Q519.81-22.46 517.18-22.46L517.18-22.46L517.18-22.46Q512.26-22.46 511.42-17.73L511.42-17.73ZM558.66-19.65L558.66-19.65L558.66-19.65Q558.66-22.40 556.00-22.40L556.00-22.40L556.00-22.40Q553.34-22.40 551.62-20.42L551.62-20.42L548.03 0L537.15 0L542.59-30.78L552.70-30.78L552.00-27.01L552.00-27.01Q555.78-31.68 561.54-31.68L561.54-31.68L561.54-31.68Q567.30-31.68 569.02-28.86L569.02-28.86L569.02-28.86Q570.11-27.07 570.11-24.77L570.11-24.77L570.11-24.77Q570.11-22.46 569.79-20.48L569.79-20.48L568.06-10.62L568.06-10.62Q568.00-10.24 568.00-9.92L568.00-9.92L568.00-9.92Q568.00-8.19 569.92-8.19L569.92-8.19L569.92-8.19Q571.39-8.19 572.54-8.83L572.54-8.83L572.22-1.60L572.22-1.60Q569.22 0.90 565.38 0.90L565.38 0.90L565.38 0.90Q556.67 0.90 556.67-6.40L556.67-6.40L556.67-6.40Q556.67-7.68 556.93-9.15L556.93-9.15L558.46-17.66L558.46-17.66Q558.66-18.82 558.66-19.65Z" fill="#f00" stroke="#0f0" stroke-width="1.8"></path></g></g><g><g transform="translate(-36.87999606132507, 110.55000305175781)"><path d="M33.34-46.08L44.86-46.08L36.80 0L25.22 0L28.16-16.64L15.68-16.64L12.80 0L1.22 0L9.34-46.08L20.86-46.08L17.41-26.62L29.89-26.62L33.34-46.08ZM59.52-8.19L59.52-8.19L59.52-8.19Q60.99-8.19 62.14-8.83L62.14-8.83L61.82-1.60L61.82-1.60Q58.82 0.90 54.98 0.90L54.98 0.90L54.98 0.90Q49.15 0.90 47.42-1.79L47.42-1.79L47.42-1.79Q46.27-3.58 46.27-5.60L46.27-5.60L46.27-5.60Q46.27-7.62 46.53-9.15L46.53-9.15L50.37-30.78L61.25-30.78L57.66-10.62L57.66-10.62Q57.60-10.24 57.60-9.92L57.60-9.92L57.60-9.92Q57.60-8.19 59.52-8.19ZM51.65-41.22L51.65-41.22L51.65-41.22Q51.65-45.31 53.47-47.20L53.47-47.20L53.47-47.20Q55.30-49.09 59.14-49.09L59.14-49.09L59.14-49.09Q64.51-49.09 64.51-44.35L64.51-44.35L64.51-44.35Q64.51-40.32 62.69-38.46L62.69-38.46L62.69-38.46Q60.86-36.61 56.96-36.61L56.96-36.61L56.96-36.61Q51.65-36.61 51.65-41.22ZM64.96-3.71L64.96-3.71L64.96-3.71Q64.96-7.81 66.78-9.70L66.78-9.70L66.78-9.70Q68.61-11.58 72.51-11.58L72.51-11.58L72.51-11.58Q78.27-11.58 78.27-5.89L78.27-5.89L78.27-5.89Q78.27 12.93 60.48 12.93L60.48 12.93L61.31 8.32L61.31 8.32Q64.70 8.32 68.03 5.12L68.03 5.12L68.03 5.12Q69.89 3.33 70.27 0.90L70.27 0.90L70.27 0.90Q64.96 0.90 64.96-3.71ZM108.22-46.08L119.74-46.08L111.68 0L100.10 0L108.22-46.08ZM135.62-52.48L132.54-37.38L126.02-37.38L128.38-52.48L135.62-52.48ZM187.01-8.19L187.01-8.19L187.01-8.19Q188.48-8.19 189.63-8.83L189.63-8.83L189.31-1.60L189.31-1.60Q186.30 0.90 182.46 0.90L182.46 0.90L182.46 0.90Q173.76 0.90 173.76-6.40L173.76-6.40L173.76-6.40Q173.76-7.68 174.02-9.15L174.02-9.15L175.36-17.02L175.36-17.02Q175.55-18.18 175.55-19.33L175.55-19.33L175.55-19.33Q175.55-22.40 172.19-22.40L172.19-22.40L172.19-22.40Q168.83-22.40 166.91-19.78L166.91-19.78L163.46 0L152.58 0L155.58-17.02L155.58-17.02Q155.78-18.18 155.78-19.33L155.78-19.33L155.78-19.33Q155.78-22.40 152.32-22.40L152.32-22.40L152.32-22.40Q149.57-22.40 147.58-20.29L147.58-20.29L144 0L133.12 0L138.56-30.78L148.67-30.78L147.97-26.94L147.97-26.94Q151.81-31.68 157.70-31.68L157.70-31.68L157.70-31.68Q166.02-31.68 167.17-26.18L167.17-26.18L167.17-26.18Q171.01-31.68 177.44-31.68L177.44-31.68L177.44-31.68Q183.87-31.68 185.79-28.80L185.79-28.80L185.79-28.80Q187.07-26.82 187.07-24.45L187.07-24.45L187.07-24.45Q187.07-22.08 186.75-20.16L186.75-20.16L185.15-10.62L185.15-10.62Q185.09-10.24 185.09-9.92L185.09-9.92L185.09-9.92Q185.09-8.19 187.01-8.19ZM243.52 0L231.36 0L231.74-10.05L221.06-10.05L217.92 0L205.70 0L222.14-46.08L243.26-46.08L243.52 0ZM232.77-34.88L228.74-34.88L223.68-18.62L232.06-18.62L232.77-34.88ZM261.70-9.86L261.70-9.86L261.70-9.86Q261.70-8.19 263.39-8.19L263.39-8.19L263.39-8.19Q265.09-8.19 266.24-8.83L266.24-8.83L265.92-1.60L265.92-1.60Q262.85 0.90 259.01 0.90L259.01 0.90L259.01 0.90Q253.18 0.90 251.46-1.79L251.46-1.79L251.46-1.79Q250.37-3.52 250.37-5.57L250.37-5.57L250.37-5.57Q250.37-7.62 250.62-9.15L250.62-9.15L257.60-48.58L268.48-48.58L261.76-10.62L261.76-10.62Q261.70-10.24 261.70-9.86ZM300.22-9.86L300.22-9.86L300.22-9.86Q300.22-8.19 301.92-8.19L301.92-8.19L301.92-8.19Q303.62-8.19 304.77-8.83L304.77-8.83L304.45-1.60L304.45-1.60Q301.38 0.90 297.54 0.90L297.54 0.90L297.54 0.90Q290.50 0.90 289.73-4.22L289.73-4.22L289.73-4.22Q286.53 0.90 280.32 0.90L280.32 0.90L280.32 0.90Q269.82 0.90 269.82-8.13L269.82-8.13L269.82-8.13Q269.82-9.66 270.14-11.52L270.14-11.52L271.49-19.01L271.49-19.01Q272.51-24.77 276.19-28.19L276.19-28.19L276.19-28.19Q279.87-31.62 285.79-31.62L285.79-31.62L285.79-31.62Q291.71-31.62 293.82-28.86L293.82-28.86L294.14-30.78L303.87-30.78L300.29-10.62L300.29-10.62Q300.22-10.24 300.22-9.86ZM282.11-17.73L281.28-12.93L281.28-12.93Q281.15-12.35 281.15-11.33L281.15-11.33L281.15-11.33Q281.15-10.30 282.11-9.31L282.11-9.31L282.11-9.31Q283.07-8.32 285.34-8.32L285.34-8.32L285.34-8.32Q287.62-8.32 289.28-10.11L289.28-10.11L291.20-20.86L291.20-20.86Q290.50-22.46 287.87-22.46L287.87-22.46L287.87-22.46Q282.94-22.46 282.11-17.73L282.11-17.73ZM338.75-9.86L338.75-9.86L338.75-9.86Q338.75-8.19 340.45-8.19L340.45-8.19L340.45-8.19Q342.14-8.19 343.30-8.83L343.30-8.83L342.98-1.60L342.98-1.60Q339.90 0.90 336.06 0.90L336.06 0.90L336.06 0.90Q329.02 0.90 328.26-4.22L328.26-4.22L328.26-4.22Q325.06 0.90 318.85 0.90L318.85 0.90L318.85 0.90Q308.35 0.90 308.35-8.13L308.35-8.13L308.35-8.13Q308.35-9.66 308.67-11.52L308.67-11.52L310.02-19.01L310.02-19.01Q311.04-24.77 314.72-28.19L314.72-28.19L314.72-28.19Q318.40-31.62 324.32-31.62L324.32-31.62L324.32-31.62Q330.24-31.62 332.35-28.86L332.35-28.86L332.67-30.78L342.40-30.78L338.82-10.62L338.82-10.62Q338.75-10.24 338.75-9.86ZM320.64-17.73L319.81-12.93L319.81-12.93Q319.68-12.35 319.68-11.33L319.68-11.33L319.68-11.33Q319.68-10.30 320.64-9.31L320.64-9.31L320.64-9.31Q321.60-8.32 323.87-8.32L323.87-8.32L323.87-8.32Q326.14-8.32 327.81-10.11L327.81-10.11L329.73-20.86L329.73-20.86Q329.02-22.46 326.40-22.46L326.40-22.46L326.40-22.46Q321.47-22.46 320.64-17.73L320.64-17.73ZM397.38 0L385.22 0L385.60-10.05L374.91-10.05L371.78 0L359.55 0L376.00-46.08L397.12-46.08L397.38 0ZM386.62-34.88L382.59-34.88L377.54-18.62L385.92-18.62L386.62-34.88ZM418.88-30.78L415.87-13.76L415.87-13.76Q415.68-12.61 415.68-11.46L415.68-11.46L415.68-11.46Q415.68-8.38 419.14-8.38L419.14-8.38L419.14-8.38Q421.95-8.38 423.81-10.37L423.81-10.37L427.39-30.78L438.27-30.78L432.64 1.02L432.64 1.02Q431.23 9.15 426.21 13.89L426.21 13.89L426.21 13.89Q421.18 18.62 414.72 18.62L414.72 18.62L414.72 18.62Q408.26 18.62 405.41 16.26L405.41 16.26L405.41 16.26Q402.56 13.89 402.56 10.05L402.56 10.05L402.56 10.05Q402.56 4.61 409.28 0.38L409.28 0.38L409.28 0.38Q405.63-0.51 404.67-3.26L404.67-3.26L404.67-3.26Q404.10-4.80 404.10-6.72L404.10-6.72L404.10-6.72Q404.10-8.64 404.42-10.62L404.42-10.62L408.00-30.78L418.88-30.78ZM416.19 9.47L416.19 9.47L416.19 9.47Q420.35 9.47 421.63 1.92L421.63 1.92L422.27-1.79L422.27-1.79Q413.38 2.37 413.38 6.59L413.38 6.59L413.38 6.59Q413.38 7.87 414.11 8.67L414.11 8.67L414.11 8.67Q414.85 9.47 416.19 9.47ZM493.12-8.19L493.12-8.19L493.12-8.19Q494.59-8.19 495.74-8.83L495.74-8.83L495.42-1.60L495.42-1.60Q492.42 0.90 488.58 0.90L488.58 0.90L488.58 0.90Q479.87 0.90 479.87-6.40L479.87-6.40L479.87-6.40Q479.87-7.68 480.13-9.15L480.13-9.15L481.47-17.02L481.47-17.02Q481.66-18.18 481.66-19.33L481.66-19.33L481.66-19.33Q481.66-22.40 478.30-22.40L478.30-22.40L478.30-22.40Q474.94-22.40 473.02-19.78L473.02-19.78L469.57 0L458.69 0L461.70-17.02L461.70-17.02Q461.89-18.18 461.89-19.33L461.89-19.33L461.89-19.33Q461.89-22.40 458.43-22.40L458.43-22.40L458.43-22.40Q455.68-22.40 453.70-20.29L453.70-20.29L450.11 0L439.23 0L444.67-30.78L454.78-30.78L454.08-26.94L454.08-26.94Q457.92-31.68 463.81-31.68L463.81-31.68L463.81-31.68Q472.13-31.68 473.28-26.18L473.28-26.18L473.28-26.18Q477.12-31.68 483.55-31.68L483.55-31.68L483.55-31.68Q489.98-31.68 491.90-28.80L491.90-28.80L491.90-28.80Q493.18-26.82 493.18-24.45L493.18-24.45L493.18-24.45Q493.18-22.08 492.86-20.16L492.86-20.16L491.26-10.62L491.26-10.62Q491.20-10.24 491.20-9.92L491.20-9.92L491.20-9.92Q491.20-8.19 493.12-8.19ZM529.54-9.86L529.54-9.86L529.54-9.86Q529.54-8.19 531.23-8.19L531.23-8.19L531.23-8.19Q532.93-8.19 534.08-8.83L534.08-8.83L533.76-1.60L533.76-1.60Q530.69 0.90 526.85 0.90L526.85 0.90L526.85 0.90Q519.81 0.90 519.04-4.22L519.04-4.22L519.04-4.22Q515.84 0.90 509.63 0.90L509.63 0.90L509.63 0.90Q499.14 0.90 499.14-8.13L499.14-8.13L499.14-8.13Q499.14-9.66 499.46-11.52L499.46-11.52L500.80-19.01L500.80-19.01Q501.82-24.77 505.50-28.19L505.50-28.19L505.50-28.19Q509.18-31.62 515.10-31.62L515.10-31.62L515.10-31.62Q521.02-31.62 523.14-28.86L523.14-28.86L523.46-30.78L533.18-30.78L529.60-10.62L529.60-10.62Q529.54-10.24 529.54-9.86ZM511.42-17.73L510.59-12.93L510.59-12.93Q510.46-12.35 510.46-11.33L510.46-11.33L510.46-11.33Q510.46-10.30 511.42-9.31L511.42-9.31L511.42-9.31Q512.38-8.32 514.66-8.32L514.66-8.32L514.66-8.32Q516.93-8.32 518.59-10.11L518.59-10.11L520.51-20.86L520.51-20.86Q519.81-22.46 517.18-22.46L517.18-22.46L517.18-22.46Q512.26-22.46 511.42-17.73L511.42-17.73ZM558.66-19.65L558.66-19.65L558.66-19.65Q558.66-22.40 556.00-22.40L556.00-22.40L556.00-22.40Q553.34-22.40 551.62-20.42L551.62-20.42L548.03 0L537.15 0L542.59-30.78L552.70-30.78L552.00-27.01L552.00-27.01Q555.78-31.68 561.54-31.68L561.54-31.68L561.54-31.68Q567.30-31.68 569.02-28.86L569.02-28.86L569.02-28.86Q570.11-27.07 570.11-24.77L570.11-24.77L570.11-24.77Q570.11-22.46 569.79-20.48L569.79-20.48L568.06-10.62L568.06-10.62Q568.00-10.24 568.00-9.92L568.00-9.92L568.00-9.92Q568.00-8.19 569.92-8.19L569.92-8.19L569.92-8.19Q571.39-8.19 572.54-8.83L572.54-8.83L572.22-1.60L572.22-1.60Q569.22 0.90 565.38 0.90L565.38 0.90L565.38 0.90Q556.67 0.90 556.67-6.40L556.67-6.40L556.67-6.40Q556.67-7.68 556.93-9.15L556.93-9.15L558.46-17.66L558.46-17.66Q558.66-18.82 558.66-19.65Z" fill="none" stroke="#ffffff" stroke-width="2.1"></path></g></g></g><style>text {
  font-size: 64px;
  font-family: Arial Black;
  dominant-baseline: central;
  text-anchor: middle;
}</style></svg>