<svg width="998.1950439453125px" height="147.68000183105468px" xmlns="http://www.w3.org/2000/svg" viewBox="-249.09752197265624 1.159999084472659 998.1950439453125 147.68000183105468" style="background: none;" preserveAspectRatio="xMidYMid"><defs><linearGradient id="editing-shiny-gradient" x1="0" x2="1" y1="0.5" y2="0.5" gradientUnits="objectBoundingBox"><stop offset="0.0" stop-color="#ed5cae"></stop><stop offset="0.5" stop-color="#ab3259"></stop><stop offset="1.0" stop-color="#708dc2"></stop></linearGradient><linearGradient id="editing-shiny-gradient2" x1="0" x2="0" y1="0" y2="1"><stop offset="0.2" stop-color="#fff" stop-opacity="0.8"></stop><stop offset="0.8" stop-color="#fff" stop-opacity="0"></stop></linearGradient><filter id="editing-shiny2" x="-100%" y="-100%" width="300%" height="300%"><feMorphology operator="erode" radius="2"></feMorphology></filter><filter id="editing-shiny" x="-100%" y="-100%" width="300%" height="300%"><feFlood flood-color="#fff" result="flood"></feFlood><feConvolveMatrix in="SourceGraphic" result="conv" order="8,8" divisor="1" kernelMatrix="0 0 0 0 0 0 0 0 0 0 0 1 1 0 0 0 0 0 0 1 1 0 0 0 0 0 1 0 0 1 0 0 0 0 1 0 0 1 0 0 0 1 0 0 0 0 1 0 0 1 1 0 0 1 1 0 0 0 0 1 1 0 0 0 "></feConvolveMatrix><feOffset dx="0" dy="4" in="conv" result="offset"></feOffset><feComposite operator="in" in="flood" in2="offset" result="comp"></feComposite><feGaussianBlur in="offset" stdDeviation="3" result="shadow"></feGaussianBlur><feColorMatrix in="shadow" type="matrix" values="0.7 0 0 0 0  0 0.7 0 0 0  0 0 0.7 0 0  0 0 0 0.3 0" result="dark-shadow"></feColorMatrix><feOffset dx="0" dy="4" in="dark-shadow" result="offset-shadow"></feOffset><feOffset dx="0" dy="2" in="conv" result="offset-2"></feOffset><feComposite operator="out" in="offset" in2="offset-2" result="edge-diff"></feComposite><feGaussianBlur in="edge-diff" stdDeviation="1" result="edge-blur"></feGaussianBlur><feColorMatrix in="edge-blur" result="edge-shadow" type="matrix" values="0 0 0 0 0  0 0 0 0 0  0 0 0 0 0  0 0 0 0.5 0"></feColorMatrix><feComposite operator="in" in="edge-shadow" in2="offset" result="edge-shadow-in"></feComposite><feOffset dx="0" dy="1" in="edge-shadow-in" result="edge-shadow-final"></feOffset><feMerge result="out"><feMergeNode in="offset-shadow"></feMergeNode><feMergeNode in="comp"></feMergeNode><feMergeNode in="edge-shadow-final"></feMergeNode><feMergeNode in="SourceGraphic"></feMergeNode></feMerge></filter></defs><g filter="url(#editing-shiny)"><g transform="translate(-110.00997734069824, 111.28000450134277)"><path d="M46.08-54.62L53.89-54.62L53.89 0L46.08 0L46.08-23.38L14.82-23.38L14.82 0L7.01 0L7.01-54.62L14.82-54.62L14.82-31.19L46.08-31.19L46.08-54.62ZM67.53-40.56L75.03-40.56L75.03 0L67.53 0L67.53-40.56ZM67.15-48.37L67.15-56.18L75.41-56.18L75.41-48.37L67.15-48.37ZM99.29 0L93.42 11.62L87.90 11.62L93.50 0L87.90 0L87.90-11.39L99.29-11.39L99.29 0ZM135.93-54.62L143.74-54.62L143.74 0L135.93 0L135.93-54.62ZM167.12-46.35L164.65-29.02L159.47-29.02L156.99-46.35L156.99-54.62L167.12-54.62L167.12-46.35ZM228.90-33.06L211.76-33.06L211.76 0L204.25 0L204.25-33.06L187.08-33.06L187.08 0L179.61 0L179.61-40.56L187.08-40.56L187.08-33.40L187.08-33.40Q187.15-34.89 187.76-36.20L187.76-36.20L187.76-36.20Q188.37-37.51 189.38-38.49L189.38-38.49L189.38-38.49Q190.39-39.46 191.72-40.01L191.72-40.01L191.72-40.01Q193.06-40.56 194.58-40.56L194.58-40.56L204.25-40.56L204.25-40.56Q205.74-40.56 207.07-40.01L207.07-40.01L207.07-40.01Q208.41-39.46 209.43-38.49L209.43-38.49L209.43-38.49Q210.46-37.51 211.09-36.20L211.09-36.20L211.09-36.20Q211.72-34.89 211.76-33.40L211.76-33.40L211.76-33.40Q211.83-34.89 212.42-36.20L212.42-36.20L212.42-36.20Q213.01-37.51 214.02-38.49L214.02-38.49L214.02-38.49Q215.03-39.46 216.37-40.01L216.37-40.01L216.37-40.01Q217.70-40.56 219.22-40.56L219.22-40.56L228.90-40.56L228.90-40.56Q230.46-40.56 231.83-39.97L231.83-39.97L231.83-39.97Q233.20-39.38 234.21-38.37L234.21-38.37L234.21-38.37Q235.22-37.36 235.81-35.99L235.81-35.99L235.81-35.99Q236.40-34.62 236.40-33.06L236.40-33.06L236.40 0L228.90 0L228.90-33.06ZM289.42-54.62L297.22-54.62L318.28 0L310.48 0L305.64-12.57L281.00-12.57L276.16 0L268.35 0L289.42-54.62ZM293.34-44.45L283.97-20.38L302.63-20.38L293.34-44.45ZM326.89-56.18L334.36-56.18L334.36 0L326.89 0L326.89-56.18ZM346.85-7.50L346.85-17.71L346.85-17.71Q346.85-19.27 347.44-20.62L347.44-20.62L347.44-20.62Q348.03-21.98 349.04-23.00L349.04-23.00L349.04-23.00Q350.05-24.03 351.42-24.62L351.42-24.62L351.42-24.62Q352.79-25.21 354.31-25.21L354.31-25.21L373.66-25.21L373.66-33.06L349.17-33.06L349.17-40.56L373.66-40.56L373.66-40.56Q375.22-40.56 376.59-39.97L376.59-39.97L376.59-39.97Q377.96-39.38 378.97-38.37L378.97-38.37L378.97-38.37Q379.98-37.36 380.57-35.99L380.57-35.99L380.57-35.99Q381.16-34.62 381.16-33.06L381.16-33.06L381.16 0L373.66 0L373.66-6.86L373.66-6.86Q373.55-5.45 372.90-4.19L372.90-4.19L372.90-4.19Q372.25-2.93 371.24-2.00L371.24-2.00L371.24-2.00Q370.23-1.07 368.94-0.53L368.94-0.53L368.94-0.53Q367.64 0 366.20 0L366.20 0L354.31 0L354.31 0Q352.79 0 351.42-0.59L351.42-0.59L351.42-0.59Q350.05-1.18 349.04-2.19L349.04-2.19L349.04-2.19Q348.03-3.20 347.44-4.57L347.44-4.57L347.44-4.57Q346.85-5.94 346.85-7.50L346.85-7.50ZM354.31-17.71L354.31-7.50L373.66-7.50L373.66-17.71L354.31-17.71ZM393.66-7.50L393.66-17.71L393.66-17.71Q393.66-19.27 394.25-20.62L394.25-20.62L394.25-20.62Q394.84-21.98 395.85-23.00L395.85-23.00L395.85-23.00Q396.86-24.03 398.23-24.62L398.23-24.62L398.23-24.62Q399.60-25.21 401.12-25.21L401.12-25.21L420.47-25.21L420.47-33.06L395.98-33.06L395.98-40.56L420.47-40.56L420.47-40.56Q422.03-40.56 423.40-39.97L423.40-39.97L423.40-39.97Q424.77-39.38 425.78-38.37L425.78-38.37L425.78-38.37Q426.79-37.36 427.38-35.99L427.38-35.99L427.38-35.99Q427.97-34.62 427.97-33.06L427.97-33.06L427.97 0L420.47 0L420.47-6.86L420.47-6.86Q420.35-5.45 419.71-4.19L419.71-4.19L419.71-4.19Q419.06-2.93 418.05-2.00L418.05-2.00L418.05-2.00Q417.04-1.07 415.75-0.53L415.75-0.53L415.75-0.53Q414.45 0 413.00 0L413.00 0L401.12 0L401.12 0Q399.60 0 398.23-0.59L398.23-0.59L398.23-0.59Q396.86-1.18 395.85-2.19L395.85-2.19L395.85-2.19Q394.84-3.20 394.25-4.57L394.25-4.57L394.25-4.57Q393.66-5.94 393.66-7.50L393.66-7.50ZM401.12-17.71L401.12-7.50L420.47-7.50L420.47-17.71L401.12-17.71ZM480.99-54.62L488.79-54.62L509.86 0L502.05 0L497.21-12.57L472.57-12.57L467.73 0L459.93 0L480.99-54.62ZM484.91-44.45L475.54-20.38L494.20-20.38L484.91-44.45ZM528.67 16.38L521.21 16.38L529.70-3.66L513.78-40.56L521.66-40.56L533.51-12.64L545.35-40.56L553.24-40.56L528.67 16.38ZM610.33-33.06L593.19-33.06L593.19 0L585.69 0L585.69-33.06L568.51-33.06L568.51 0L561.04 0L561.04-40.56L568.51-40.56L568.51-33.40L568.51-33.40Q568.58-34.89 569.19-36.20L569.19-36.20L569.19-36.20Q569.80-37.51 570.81-38.49L570.81-38.49L570.81-38.49Q571.82-39.46 573.16-40.01L573.16-40.01L573.16-40.01Q574.49-40.56 576.01-40.56L576.01-40.56L585.69-40.56L585.69-40.56Q587.17-40.56 588.50-40.01L588.50-40.01L588.50-40.01Q589.84-39.46 590.87-38.49L590.87-38.49L590.87-38.49Q591.89-37.51 592.52-36.20L592.52-36.20L592.52-36.20Q593.15-34.89 593.19-33.40L593.19-33.40L593.19-33.40Q593.26-34.89 593.85-36.20L593.85-36.20L593.85-36.20Q594.45-37.51 595.45-38.49L595.45-38.49L595.45-38.49Q596.46-39.46 597.80-40.01L597.80-40.01L597.80-40.01Q599.13-40.56 600.65-40.56L600.65-40.56L610.33-40.56L610.33-40.56Q611.89-40.56 613.26-39.97L613.26-39.97L613.26-39.97Q614.63-39.38 615.64-38.37L615.64-38.37L615.64-38.37Q616.65-37.36 617.24-35.99L617.24-35.99L617.24-35.99Q617.83-34.62 617.83-33.06L617.83-33.06L617.83 0L610.33 0L610.33-33.06ZM630.32-7.50L630.32-17.71L630.32-17.71Q630.32-19.27 630.91-20.62L630.91-20.62L630.91-20.62Q631.50-21.98 632.51-23.00L632.51-23.00L632.51-23.00Q633.52-24.03 634.89-24.62L634.89-24.62L634.89-24.62Q636.26-25.21 637.79-25.21L637.79-25.21L657.13-25.21L657.13-33.06L632.65-33.06L632.65-40.56L657.13-40.56L657.13-40.56Q658.70-40.56 660.07-39.97L660.07-39.97L660.07-39.97Q661.44-39.38 662.45-38.37L662.45-38.37L662.45-38.37Q663.46-37.36 664.05-35.99L664.05-35.99L664.05-35.99Q664.64-34.62 664.64-33.06L664.64-33.06L664.64 0L657.13 0L657.13-6.86L657.13-6.86Q657.02-5.45 656.37-4.19L656.37-4.19L656.37-4.19Q655.73-2.93 654.72-2.00L654.72-2.00L654.72-2.00Q653.71-1.07 652.41-0.53L652.41-0.53L652.41-0.53Q651.12 0 649.67 0L649.67 0L637.79 0L637.79 0Q636.26 0 634.89-0.59L634.89-0.59L634.89-0.59Q633.52-1.18 632.51-2.19L632.51-2.19L632.51-2.19Q631.50-3.20 630.91-4.57L630.91-4.57L630.91-4.57Q630.32-5.94 630.32-7.50L630.32-7.50ZM637.79-17.71L637.79-7.50L657.13-7.50L657.13-17.71L637.79-17.71ZM713.01-33.06L713.01 0L705.50 0L705.50-33.06L684.59-33.06L684.59 0L677.13 0L677.13-40.56L684.59-40.56L684.59-33.40L684.59-33.40Q684.67-34.89 685.28-36.20L685.28-36.20L685.28-36.20Q685.89-37.51 686.90-38.49L686.90-38.49L686.90-38.49Q687.91-39.46 689.24-40.01L689.24-40.01L689.24-40.01Q690.57-40.56 692.10-40.56L692.10-40.56L705.50-40.56L705.50-40.56Q707.07-40.56 708.44-39.97L708.44-39.97L708.44-39.97Q709.81-39.38 710.82-38.37L710.82-38.37L710.82-38.37Q711.83-37.36 712.42-35.99L712.42-35.99L712.42-35.99Q713.01-34.62 713.01-33.06L713.01-33.06Z" fill="url(#editing-shiny-gradient)"></path></g></g><g filter="url(#editing-shiny2)"><g transform="translate(-110.00997734069824, 111.28000068664551)"><path d="M46.08-54.62L53.89-54.62L53.89 0L46.08 0L46.08-23.38L14.82-23.38L14.82 0L7.01 0L7.01-54.62L14.82-54.62L14.82-31.19L46.08-31.19L46.08-54.62ZM67.53-40.56L75.03-40.56L75.03 0L67.53 0L67.53-40.56ZM67.15-48.37L67.15-56.18L75.41-56.18L75.41-48.37L67.15-48.37ZM99.29 0L93.42 11.62L87.90 11.62L93.50 0L87.90 0L87.90-11.39L99.29-11.39L99.29 0ZM135.93-54.62L143.74-54.62L143.74 0L135.93 0L135.93-54.62ZM167.12-46.35L164.65-29.02L159.47-29.02L156.99-46.35L156.99-54.62L167.12-54.62L167.12-46.35ZM228.90-33.06L211.76-33.06L211.76 0L204.25 0L204.25-33.06L187.08-33.06L187.08 0L179.61 0L179.61-40.56L187.08-40.56L187.08-33.40L187.08-33.40Q187.15-34.89 187.76-36.20L187.76-36.20L187.76-36.20Q188.37-37.51 189.38-38.49L189.38-38.49L189.38-38.49Q190.39-39.46 191.72-40.01L191.72-40.01L191.72-40.01Q193.06-40.56 194.58-40.56L194.58-40.56L204.25-40.56L204.25-40.56Q205.74-40.56 207.07-40.01L207.07-40.01L207.07-40.01Q208.41-39.46 209.43-38.49L209.43-38.49L209.43-38.49Q210.46-37.51 211.09-36.20L211.09-36.20L211.09-36.20Q211.72-34.89 211.76-33.40L211.76-33.40L211.76-33.40Q211.83-34.89 212.42-36.20L212.42-36.20L212.42-36.20Q213.01-37.51 214.02-38.49L214.02-38.49L214.02-38.49Q215.03-39.46 216.37-40.01L216.37-40.01L216.37-40.01Q217.70-40.56 219.22-40.56L219.22-40.56L228.90-40.56L228.90-40.56Q230.46-40.56 231.83-39.97L231.83-39.97L231.83-39.97Q233.20-39.38 234.21-38.37L234.21-38.37L234.21-38.37Q235.22-37.36 235.81-35.99L235.81-35.99L235.81-35.99Q236.40-34.62 236.40-33.06L236.40-33.06L236.40 0L228.90 0L228.90-33.06ZM289.42-54.62L297.22-54.62L318.28 0L310.48 0L305.64-12.57L281.00-12.57L276.16 0L268.35 0L289.42-54.62ZM293.34-44.45L283.97-20.38L302.63-20.38L293.34-44.45ZM326.89-56.18L334.36-56.18L334.36 0L326.89 0L326.89-56.18ZM346.85-7.50L346.85-17.71L346.85-17.71Q346.85-19.27 347.44-20.62L347.44-20.62L347.44-20.62Q348.03-21.98 349.04-23.00L349.04-23.00L349.04-23.00Q350.05-24.03 351.42-24.62L351.42-24.62L351.42-24.62Q352.79-25.21 354.31-25.21L354.31-25.21L373.66-25.21L373.66-33.06L349.17-33.06L349.17-40.56L373.66-40.56L373.66-40.56Q375.22-40.56 376.59-39.97L376.59-39.97L376.59-39.97Q377.96-39.38 378.97-38.37L378.97-38.37L378.97-38.37Q379.98-37.36 380.57-35.99L380.57-35.99L380.57-35.99Q381.16-34.62 381.16-33.06L381.16-33.06L381.16 0L373.66 0L373.66-6.86L373.66-6.86Q373.55-5.45 372.90-4.19L372.90-4.19L372.90-4.19Q372.25-2.93 371.24-2.00L371.24-2.00L371.24-2.00Q370.23-1.07 368.94-0.53L368.94-0.53L368.94-0.53Q367.64 0 366.20 0L366.20 0L354.31 0L354.31 0Q352.79 0 351.42-0.59L351.42-0.59L351.42-0.59Q350.05-1.18 349.04-2.19L349.04-2.19L349.04-2.19Q348.03-3.20 347.44-4.57L347.44-4.57L347.44-4.57Q346.85-5.94 346.85-7.50L346.85-7.50ZM354.31-17.71L354.31-7.50L373.66-7.50L373.66-17.71L354.31-17.71ZM393.66-7.50L393.66-17.71L393.66-17.71Q393.66-19.27 394.25-20.62L394.25-20.62L394.25-20.62Q394.84-21.98 395.85-23.00L395.85-23.00L395.85-23.00Q396.86-24.03 398.23-24.62L398.23-24.62L398.23-24.62Q399.60-25.21 401.12-25.21L401.12-25.21L420.47-25.21L420.47-33.06L395.98-33.06L395.98-40.56L420.47-40.56L420.47-40.56Q422.03-40.56 423.40-39.97L423.40-39.97L423.40-39.97Q424.77-39.38 425.78-38.37L425.78-38.37L425.78-38.37Q426.79-37.36 427.38-35.99L427.38-35.99L427.38-35.99Q427.97-34.62 427.97-33.06L427.97-33.06L427.97 0L420.47 0L420.47-6.86L420.47-6.86Q420.35-5.45 419.71-4.19L419.71-4.19L419.71-4.19Q419.06-2.93 418.05-2.00L418.05-2.00L418.05-2.00Q417.04-1.07 415.75-0.53L415.75-0.53L415.75-0.53Q414.45 0 413.00 0L413.00 0L401.12 0L401.12 0Q399.60 0 398.23-0.59L398.23-0.59L398.23-0.59Q396.86-1.18 395.85-2.19L395.85-2.19L395.85-2.19Q394.84-3.20 394.25-4.57L394.25-4.57L394.25-4.57Q393.66-5.94 393.66-7.50L393.66-7.50ZM401.12-17.71L401.12-7.50L420.47-7.50L420.47-17.71L401.12-17.71ZM480.99-54.62L488.79-54.62L509.86 0L502.05 0L497.21-12.57L472.57-12.57L467.73 0L459.93 0L480.99-54.62ZM484.91-44.45L475.54-20.38L494.20-20.38L484.91-44.45ZM528.67 16.38L521.21 16.38L529.70-3.66L513.78-40.56L521.66-40.56L533.51-12.64L545.35-40.56L553.24-40.56L528.67 16.38ZM610.33-33.06L593.19-33.06L593.19 0L585.69 0L585.69-33.06L568.51-33.06L568.51 0L561.04 0L561.04-40.56L568.51-40.56L568.51-33.40L568.51-33.40Q568.58-34.89 569.19-36.20L569.19-36.20L569.19-36.20Q569.80-37.51 570.81-38.49L570.81-38.49L570.81-38.49Q571.82-39.46 573.16-40.01L573.16-40.01L573.16-40.01Q574.49-40.56 576.01-40.56L576.01-40.56L585.69-40.56L585.69-40.56Q587.17-40.56 588.50-40.01L588.50-40.01L588.50-40.01Q589.84-39.46 590.87-38.49L590.87-38.49L590.87-38.49Q591.89-37.51 592.52-36.20L592.52-36.20L592.52-36.20Q593.15-34.89 593.19-33.40L593.19-33.40L593.19-33.40Q593.26-34.89 593.85-36.20L593.85-36.20L593.85-36.20Q594.45-37.51 595.45-38.49L595.45-38.49L595.45-38.49Q596.46-39.46 597.80-40.01L597.80-40.01L597.80-40.01Q599.13-40.56 600.65-40.56L600.65-40.56L610.33-40.56L610.33-40.56Q611.89-40.56 613.26-39.97L613.26-39.97L613.26-39.97Q614.63-39.38 615.64-38.37L615.64-38.37L615.64-38.37Q616.65-37.36 617.24-35.99L617.24-35.99L617.24-35.99Q617.83-34.62 617.83-33.06L617.83-33.06L617.83 0L610.33 0L610.33-33.06ZM630.32-7.50L630.32-17.71L630.32-17.71Q630.32-19.27 630.91-20.62L630.91-20.62L630.91-20.62Q631.50-21.98 632.51-23.00L632.51-23.00L632.51-23.00Q633.52-24.03 634.89-24.62L634.89-24.62L634.89-24.62Q636.26-25.21 637.79-25.21L637.79-25.21L657.13-25.21L657.13-33.06L632.65-33.06L632.65-40.56L657.13-40.56L657.13-40.56Q658.70-40.56 660.07-39.97L660.07-39.97L660.07-39.97Q661.44-39.38 662.45-38.37L662.45-38.37L662.45-38.37Q663.46-37.36 664.05-35.99L664.05-35.99L664.05-35.99Q664.64-34.62 664.64-33.06L664.64-33.06L664.64 0L657.13 0L657.13-6.86L657.13-6.86Q657.02-5.45 656.37-4.19L656.37-4.19L656.37-4.19Q655.73-2.93 654.72-2.00L654.72-2.00L654.72-2.00Q653.71-1.07 652.41-0.53L652.41-0.53L652.41-0.53Q651.12 0 649.67 0L649.67 0L637.79 0L637.79 0Q636.26 0 634.89-0.59L634.89-0.59L634.89-0.59Q633.52-1.18 632.51-2.19L632.51-2.19L632.51-2.19Q631.50-3.20 630.91-4.57L630.91-4.57L630.91-4.57Q630.32-5.94 630.32-7.50L630.32-7.50ZM637.79-17.71L637.79-7.50L657.13-7.50L657.13-17.71L637.79-17.71ZM713.01-33.06L713.01 0L705.50 0L705.50-33.06L684.59-33.06L684.59 0L677.13 0L677.13-40.56L684.59-40.56L684.59-33.40L684.59-33.40Q684.67-34.89 685.28-36.20L685.28-36.20L685.28-36.20Q685.89-37.51 686.90-38.49L686.90-38.49L686.90-38.49Q687.91-39.46 689.24-40.01L689.24-40.01L689.24-40.01Q690.57-40.56 692.10-40.56L692.10-40.56L705.50-40.56L705.50-40.56Q707.07-40.56 708.44-39.97L708.44-39.97L708.44-39.97Q709.81-39.38 710.82-38.37L710.82-38.37L710.82-38.37Q711.83-37.36 712.42-35.99L712.42-35.99L712.42-35.99Q713.01-34.62 713.01-33.06L713.01-33.06Z" fill="url(#editing-shiny-gradient2)"></path></g></g><style>text {
  font-size: 64px;
  font-family: Arial Black;
  dominant-baseline: central;
  text-anchor: middle;
}</style></svg>