<svg width="1204.9849853515625px" height="213.92000732421874px" xmlns="http://www.w3.org/2000/svg" viewBox="-352.49249267578125 -31.960003662109372 1204.9849853515625 213.92000732421874" style="background: none;" preserveAspectRatio="xMidYMid"><defs><filter id="editing-vintage" x="-100%" y="-100%" width="300%" height="300%"><feConvolveMatrix in="SourceGraphic" result="extrude" order="6,6" divisor="1" kernelMatrix="1,0,0,0,0,0,0,1,0,0,0,0,0,0,1,0,0,0,0,0,0,1,0,0,0,0,0,0,1,0,0,0,0,0,0,1"> </feConvolveMatrix><feFlood flood-color="#2b5267" result="flood-extrude"></feFlood><feComposite operator="in" in="flood-extrude" in2="extrude" result="extrude-color"></feComposite><feOffset dx="3" dy="3" in="extrude-color" result="extrude-offset"></feOffset><feColorMatrix in="SourceGraphic" result="stroke" type="matrix" values="0 0 0 0 0 0 0 0 0 0 0 0 0 0 0 0 1 0 0 0 "></feColorMatrix><feColorMatrix in="SourceGraphic" result="fill" type="matrix" values="0 0 0 0 0 0 0 0 0 0 0 0 0 0 0 1 0 0 1 0 "></feColorMatrix><feConvolveMatrix in="stroke" result="inner-shadow" order="5,5" divisor="1" kernelMatrix="1 0 0 0 0 0 1 0 0 0 0 0 1 0 0 0 0 0 1 0 0 0 0 0 1 "></feConvolveMatrix><feOffset dx="1" dy="1" in="inner-shadow" result="offset"></feOffset><feComposite operator="in" in="offset" in2="SourceAlpha" result="comp"></feComposite><feFlood flood-color="#2b5267" result="flood3"></feFlood><feComposite operator="in" in="flood3" in2="comp" result="comp2"></feComposite><feColorMatrix in="comp2" result="comp3" type="matrix" values="1 0 0 0 0 0 1 0 0 0 0 0 1 0 0 0 0 0 0.5 0 "></feColorMatrix><feFlood flood-color="#74ceff" result="flood1"></feFlood><feComposite operator="in" in="flood1" in2="fill" result="fill2"></feComposite><feFlood flood-color="#fff" result="flood2"></feFlood><feComposite operator="in" in="flood2" in2="stroke" result="stroke2"></feComposite><feMerge result="obj"><feMergeNode in="extrude-offset"></feMergeNode><feMergeNode in="fill2"></feMergeNode><feMergeNode in="comp3"></feMergeNode></feMerge><feConvolveMatrix in="SourceAlpha" result="shadow" order="6,6" divisor="1" kernelMatrix="1,0,0,0,0,0,0,1,0,0,0,0,0,0,1,0,0,0,0,0,0,1,0,0,0,0,0,0,1,0,0,0,0,0,0,1"></feConvolveMatrix><feOffset dx="9" dy="9" in="shadow" result="shadow-offset"></feOffset><feFlood flood-color="rgba(0%,0%,0%,0.502)" result="flood-shadow"></feFlood><feComposite operator="in" in="flood-shadow" in2="shadow-offset" result="shadow-color"></feComposite><feMerge><feMergeNode in="shadow-color"></feMergeNode><feMergeNode in="obj"></feMergeNode></feMerge></filter></defs><g transform="translate(-6,-6)"><g filter="url(#editing-vintage)"><g transform="translate(-184.8000067472458, 128.88500928878784)"><path d="M50.54-69.84L68.00-69.84L55.77 0L38.22 0L42.68-25.22L23.77-25.22L19.40 0L1.84 0L14.16-69.84L31.62-69.84L26.38-40.35L45.30-40.35L50.54-69.84ZM90.21-12.42L90.21-12.42L90.21-12.42Q92.44-12.42 94.19-13.39L94.19-13.39L93.70-2.43L93.70-2.43Q89.14 1.36 83.32 1.36L83.32 1.36L83.32 1.36Q74.50 1.36 71.88-2.72L71.88-2.72L71.88-2.72Q70.13-5.43 70.13-8.49L70.13-8.49L70.13-8.49Q70.13-11.54 70.52-13.87L70.52-13.87L76.34-46.66L92.83-46.66L87.40-16.10L87.40-16.10Q87.30-15.52 87.30-15.04L87.30-15.04L87.30-15.04Q87.30-12.42 90.21-12.42ZM78.28-62.47L78.28-62.47L78.28-62.47Q78.28-68.68 81.04-71.54L81.04-71.54L81.04-71.54Q83.81-74.40 89.63-74.40L89.63-74.40L89.63-74.40Q97.78-74.40 97.78-67.22L97.78-67.22L97.78-67.22Q97.78-61.11 95.01-58.30L95.01-58.30L95.01-58.30Q92.25-55.48 86.33-55.48L86.33-55.48L86.33-55.48Q78.28-55.48 78.28-62.47ZM98.46-5.63L98.46-5.63L98.46-5.63Q98.46-11.83 101.22-14.70L101.22-14.70L101.22-14.70Q103.98-17.56 109.90-17.56L109.90-17.56L109.90-17.56Q118.63-17.56 118.63-8.92L118.63-8.92L118.63-8.92Q118.63 19.59 91.67 19.59L91.67 19.59L92.93 12.61L92.93 12.61Q98.07 12.61 103.11 7.76L103.11 7.76L103.11 7.76Q105.92 5.04 106.51 1.36L106.51 1.36L106.51 1.36Q98.46 1.36 98.46-5.63ZM164.03-69.84L181.49-69.84L169.27 0L151.71 0L164.03-69.84ZM205.54-79.54L200.89-56.65L190.99-56.65L194.58-79.54L205.54-79.54ZM283.43-12.42L283.43-12.42L283.43-12.42Q285.67-12.42 287.41-13.39L287.41-13.39L286.93-2.43L286.93-2.43Q282.37 1.36 276.55 1.36L276.55 1.36L276.55 1.36Q263.36 1.36 263.36-9.70L263.36-9.70L263.36-9.70Q263.36-11.64 263.74-13.87L263.74-13.87L265.78-25.80L265.78-25.80Q266.07-27.55 266.07-29.29L266.07-29.29L266.07-29.29Q266.07-33.95 260.98-33.95L260.98-33.95L260.98-33.95Q255.89-33.95 252.98-29.97L252.98-29.97L247.74 0L231.25 0L235.81-25.80L235.81-25.80Q236.10-27.55 236.10-29.29L236.10-29.29L236.10-29.29Q236.10-33.95 230.86-33.95L230.86-33.95L230.86-33.95Q226.69-33.95 223.68-30.75L223.68-30.75L218.25 0L201.76 0L210.00-46.66L225.33-46.66L224.26-40.84L224.26-40.84Q230.08-48.02 239.01-48.02L239.01-48.02L239.01-48.02Q251.62-48.02 253.36-39.67L253.36-39.67L253.36-39.67Q259.18-48.02 268.93-48.02L268.93-48.02L268.93-48.02Q278.68-48.02 281.59-43.65L281.59-43.65L281.59-43.65Q283.53-40.64 283.53-37.05L283.53-37.05L283.53-37.05Q283.53-33.47 283.05-30.55L283.05-30.55L280.62-16.10L280.62-16.10Q280.52-15.52 280.52-15.04L280.52-15.04L280.52-15.04Q280.52-12.42 283.43-12.42ZM369.08 0L350.65 0L351.24-15.23L335.04-15.23L330.28 0L311.76 0L336.69-69.84L368.70-69.84L369.08 0ZM352.79-52.87L346.68-52.87L339.01-28.23L351.72-28.23L352.79-52.87ZM396.63-14.94L396.63-14.94L396.63-14.94Q396.63-12.42 399.20-12.42L399.20-12.42L399.20-12.42Q401.77-12.42 403.52-13.39L403.52-13.39L403.03-2.43L403.03-2.43Q398.38 1.36 392.56 1.36L392.56 1.36L392.56 1.36Q383.73 1.36 381.11-2.72L381.11-2.72L381.11-2.72Q379.46-5.33 379.46-8.44L379.46-8.44L379.46-8.44Q379.46-11.54 379.85-13.87L379.85-13.87L390.43-73.62L406.92-73.62L396.73-16.10L396.73-16.10Q396.63-15.52 396.63-14.94ZM455.03-14.94L455.03-14.94L455.03-14.94Q455.03-12.42 457.60-12.42L457.60-12.42L457.60-12.42Q460.17-12.42 461.91-13.39L461.91-13.39L461.43-2.43L461.43-2.43Q456.77 1.36 450.95 1.36L450.95 1.36L450.95 1.36Q440.28 1.36 439.12-6.40L439.12-6.40L439.12-6.40Q434.27 1.36 424.86 1.36L424.86 1.36L424.86 1.36Q408.95 1.36 408.95-12.32L408.95-12.32L408.95-12.32Q408.95-14.65 409.44-17.46L409.44-17.46L411.47-28.81L411.47-28.81Q413.03-37.54 418.60-42.73L418.60-42.73L418.60-42.73Q424.18-47.92 433.15-47.92L433.15-47.92L433.15-47.92Q442.13-47.92 445.33-43.75L445.33-43.75L445.81-46.66L460.56-46.66L455.12-16.10L455.12-16.10Q455.03-15.52 455.03-14.94ZM427.58-26.87L426.31-19.59L426.31-19.59Q426.12-18.72 426.12-17.17L426.12-17.17L426.12-17.17Q426.12-15.62 427.58-14.11L427.58-14.11L427.58-14.11Q429.03-12.61 432.47-12.61L432.47-12.61L432.47-12.61Q435.92-12.61 438.44-15.33L438.44-15.33L441.35-31.62L441.35-31.62Q440.28-34.05 436.31-34.05L436.31-34.05L436.31-34.05Q428.84-34.05 427.58-26.87L427.58-26.87ZM513.42-14.94L513.42-14.94L513.42-14.94Q513.42-12.42 515.99-12.42L515.99-12.42L515.99-12.42Q518.56-12.42 520.31-13.39L520.31-13.39L519.82-2.43L519.82-2.43Q515.17 1.36 509.35 1.36L509.35 1.36L509.35 1.36Q498.68 1.36 497.51-6.40L497.51-6.40L497.51-6.40Q492.66 1.36 483.25 1.36L483.25 1.36L483.25 1.36Q467.35 1.36 467.35-12.32L467.35-12.32L467.35-12.32Q467.35-14.65 467.83-17.46L467.83-17.46L469.87-28.81L469.87-28.81Q471.42-37.54 477.00-42.73L477.00-42.73L477.00-42.73Q482.57-47.92 491.55-47.92L491.55-47.92L491.55-47.92Q500.52-47.92 503.72-43.75L503.72-43.75L504.21-46.66L518.95-46.66L513.52-16.10L513.52-16.10Q513.42-15.52 513.42-14.94ZM485.97-26.87L484.71-19.59L484.71-19.59Q484.51-18.72 484.51-17.17L484.51-17.17L484.51-17.17Q484.51-15.62 485.97-14.11L485.97-14.11L485.97-14.11Q487.42-12.61 490.87-12.61L490.87-12.61L490.87-12.61Q494.31-12.61 496.83-15.33L496.83-15.33L499.74-31.62L499.74-31.62Q498.68-34.05 494.70-34.05L494.70-34.05L494.70-34.05Q487.23-34.05 485.97-26.87L485.97-26.87ZM602.27 0L583.84 0L584.42-15.23L568.23-15.23L563.47 0L544.95 0L569.88-69.84L601.88-69.84L602.27 0ZM585.98-52.87L579.87-52.87L572.20-28.23L584.91-28.23L585.98-52.87ZM634.87-46.66L630.31-20.86L630.31-20.86Q630.01-19.11 630.01-17.36L630.01-17.36L630.01-17.36Q630.01-12.71 635.25-12.71L635.25-12.71L635.25-12.71Q639.52-12.71 642.33-15.71L642.33-15.71L647.77-46.66L664.26-46.66L655.72 1.55L655.72 1.55Q653.59 13.87 645.97 21.05L645.97 21.05L645.97 21.05Q638.36 28.23 628.56 28.23L628.56 28.23L628.56 28.23Q618.76 28.23 614.45 24.64L614.45 24.64L614.45 24.64Q610.13 21.05 610.13 15.23L610.13 15.23L610.13 15.23Q610.13 6.98 620.31 0.58L620.31 0.58L620.31 0.58Q614.79-0.78 613.33-4.95L613.33-4.95L613.33-4.95Q612.46-7.28 612.46-10.19L612.46-10.19L612.46-10.19Q612.46-13.10 612.94-16.10L612.94-16.10L618.38-46.66L634.87-46.66ZM630.79 14.36L630.79 14.36L630.79 14.36Q637.10 14.36 639.04 2.91L639.04 2.91L640.01-2.72L640.01-2.72Q626.52 3.59 626.52 9.99L626.52 9.99L626.52 9.99Q626.52 11.93 627.64 13.14L627.64 13.14L627.64 13.14Q628.75 14.36 630.79 14.36ZM747.38-12.42L747.38-12.42L747.38-12.42Q749.62-12.42 751.36-13.39L751.36-13.39L750.88-2.43L750.88-2.43Q746.32 1.36 740.50 1.36L740.50 1.36L740.50 1.36Q727.31 1.36 727.31-9.70L727.31-9.70L727.31-9.70Q727.31-11.64 727.69-13.87L727.69-13.87L729.73-25.80L729.73-25.80Q730.02-27.55 730.02-29.29L730.02-29.29L730.02-29.29Q730.02-33.95 724.93-33.95L724.93-33.95L724.93-33.95Q719.84-33.95 716.93-29.97L716.93-29.97L711.69 0L695.20 0L699.76-25.80L699.76-25.80Q700.05-27.55 700.05-29.29L700.05-29.29L700.05-29.29Q700.05-33.95 694.81-33.95L694.81-33.95L694.81-33.95Q690.64-33.95 687.63-30.75L687.63-30.75L682.20 0L665.71 0L673.96-46.66L689.28-46.66L688.21-40.84L688.21-40.84Q694.03-48.02 702.96-48.02L702.96-48.02L702.96-48.02Q715.57-48.02 717.31-39.67L717.31-39.67L717.31-39.67Q723.13-48.02 732.88-48.02L732.88-48.02L732.88-48.02Q742.63-48.02 745.54-43.65L745.54-43.65L745.54-43.65Q747.48-40.64 747.48-37.05L747.48-37.05L747.48-37.05Q747.48-33.47 747.00-30.55L747.00-30.55L744.57-16.10L744.57-16.10Q744.47-15.52 744.47-15.04L744.47-15.04L744.47-15.04Q744.47-12.42 747.38-12.42ZM802.58-14.94L802.58-14.94L802.58-14.94Q802.58-12.42 805.15-12.42L805.15-12.42L805.15-12.42Q807.72-12.42 809.46-13.39L809.46-13.39L808.98-2.43L808.98-2.43Q804.32 1.36 798.50 1.36L798.50 1.36L798.50 1.36Q787.83 1.36 786.67-6.40L786.67-6.40L786.67-6.40Q781.82 1.36 772.41 1.36L772.41 1.36L772.41 1.36Q756.50 1.36 756.50-12.32L756.50-12.32L756.50-12.32Q756.50-14.65 756.99-17.46L756.99-17.46L759.02-28.81L759.02-28.81Q760.58-37.54 766.15-42.73L766.15-42.73L766.15-42.73Q771.73-47.92 780.70-47.92L780.70-47.92L780.70-47.92Q789.68-47.92 792.88-43.75L792.88-43.75L793.36-46.66L808.11-46.66L802.67-16.10L802.67-16.10Q802.58-15.52 802.58-14.94ZM775.13-26.87L773.87-19.59L773.87-19.59Q773.67-18.72 773.67-17.17L773.67-17.17L773.67-17.17Q773.67-15.62 775.13-14.11L775.13-14.11L775.13-14.11Q776.58-12.61 780.03-12.61L780.03-12.61L780.03-12.61Q783.47-12.61 785.99-15.33L785.99-15.33L788.90-31.62L788.90-31.62Q787.83-34.05 783.86-34.05L783.86-34.05L783.86-34.05Q776.39-34.05 775.13-26.87L775.13-26.87ZM846.71-29.78L846.71-29.78L846.71-29.78Q846.71-33.95 842.69-33.95L842.69-33.95L842.69-33.95Q838.66-33.95 836.04-30.94L836.04-30.94L830.61 0L814.12 0L822.37-46.66L837.69-46.66L836.62-40.93L836.62-40.93Q842.35-48.02 851.08-48.02L851.08-48.02L851.08-48.02Q859.81-48.02 862.43-43.75L862.43-43.75L862.43-43.75Q864.08-41.03 864.08-37.54L864.08-37.54L864.08-37.54Q864.08-34.05 863.59-31.04L863.59-31.04L860.97-16.10L860.97-16.10Q860.87-15.52 860.87-15.04L860.87-15.04L860.87-15.04Q860.87-12.42 863.78-12.42L863.78-12.42L863.78-12.42Q866.02-12.42 867.76-13.39L867.76-13.39L867.28-2.43L867.28-2.43Q862.72 1.36 856.90 1.36L856.90 1.36L856.90 1.36Q843.71 1.36 843.71-9.70L843.71-9.70L843.71-9.70Q843.71-11.64 844.09-13.87L844.09-13.87L846.42-26.77L846.42-26.77Q846.71-28.52 846.71-29.78Z" fill="#f00" stroke="#0f0" stroke-width="1.8"></path></g></g><g><g transform="translate(-184.7999609708786, 128.88500809669495)"><path d="M50.54-69.84L68.00-69.84L55.77 0L38.22 0L42.68-25.22L23.77-25.22L19.40 0L1.84 0L14.16-69.84L31.62-69.84L26.38-40.35L45.30-40.35L50.54-69.84ZM90.21-12.42L90.21-12.42L90.21-12.42Q92.44-12.42 94.19-13.39L94.19-13.39L93.70-2.43L93.70-2.43Q89.14 1.36 83.32 1.36L83.32 1.36L83.32 1.36Q74.50 1.36 71.88-2.72L71.88-2.72L71.88-2.72Q70.13-5.43 70.13-8.49L70.13-8.49L70.13-8.49Q70.13-11.54 70.52-13.87L70.52-13.87L76.34-46.66L92.83-46.66L87.40-16.10L87.40-16.10Q87.30-15.52 87.30-15.04L87.30-15.04L87.30-15.04Q87.30-12.42 90.21-12.42ZM78.28-62.47L78.28-62.47L78.28-62.47Q78.28-68.68 81.04-71.54L81.04-71.54L81.04-71.54Q83.81-74.40 89.63-74.40L89.63-74.40L89.63-74.40Q97.78-74.40 97.78-67.22L97.78-67.22L97.78-67.22Q97.78-61.11 95.01-58.30L95.01-58.30L95.01-58.30Q92.25-55.48 86.33-55.48L86.33-55.48L86.33-55.48Q78.28-55.48 78.28-62.47ZM98.46-5.63L98.46-5.63L98.46-5.63Q98.46-11.83 101.22-14.70L101.22-14.70L101.22-14.70Q103.98-17.56 109.90-17.56L109.90-17.56L109.90-17.56Q118.63-17.56 118.63-8.92L118.63-8.92L118.63-8.92Q118.63 19.59 91.67 19.59L91.67 19.59L92.93 12.61L92.93 12.61Q98.07 12.61 103.11 7.76L103.11 7.76L103.11 7.76Q105.92 5.04 106.51 1.36L106.51 1.36L106.51 1.36Q98.46 1.36 98.46-5.63ZM164.03-69.84L181.49-69.84L169.27 0L151.71 0L164.03-69.84ZM205.54-79.54L200.89-56.65L190.99-56.65L194.58-79.54L205.54-79.54ZM283.43-12.42L283.43-12.42L283.43-12.42Q285.67-12.42 287.41-13.39L287.41-13.39L286.93-2.43L286.93-2.43Q282.37 1.36 276.55 1.36L276.55 1.36L276.55 1.36Q263.36 1.36 263.36-9.70L263.36-9.70L263.36-9.70Q263.36-11.64 263.74-13.87L263.74-13.87L265.78-25.80L265.78-25.80Q266.07-27.55 266.07-29.29L266.07-29.29L266.07-29.29Q266.07-33.95 260.98-33.95L260.98-33.95L260.98-33.95Q255.89-33.95 252.98-29.97L252.98-29.97L247.74 0L231.25 0L235.81-25.80L235.81-25.80Q236.10-27.55 236.10-29.29L236.10-29.29L236.10-29.29Q236.10-33.95 230.86-33.95L230.86-33.95L230.86-33.95Q226.69-33.95 223.68-30.75L223.68-30.75L218.25 0L201.76 0L210.00-46.66L225.33-46.66L224.26-40.84L224.26-40.84Q230.08-48.02 239.01-48.02L239.01-48.02L239.01-48.02Q251.62-48.02 253.36-39.67L253.36-39.67L253.36-39.67Q259.18-48.02 268.93-48.02L268.93-48.02L268.93-48.02Q278.68-48.02 281.59-43.65L281.59-43.65L281.59-43.65Q283.53-40.64 283.53-37.05L283.53-37.05L283.53-37.05Q283.53-33.47 283.05-30.55L283.05-30.55L280.62-16.10L280.62-16.10Q280.52-15.52 280.52-15.04L280.52-15.04L280.52-15.04Q280.52-12.42 283.43-12.42ZM369.08 0L350.65 0L351.24-15.23L335.04-15.23L330.28 0L311.76 0L336.69-69.84L368.70-69.84L369.08 0ZM352.79-52.87L346.68-52.87L339.01-28.23L351.72-28.23L352.79-52.87ZM396.63-14.94L396.63-14.94L396.63-14.94Q396.63-12.42 399.20-12.42L399.20-12.42L399.20-12.42Q401.77-12.42 403.52-13.39L403.52-13.39L403.03-2.43L403.03-2.43Q398.38 1.36 392.56 1.36L392.56 1.36L392.56 1.36Q383.73 1.36 381.11-2.72L381.11-2.72L381.11-2.72Q379.46-5.33 379.46-8.44L379.46-8.44L379.46-8.44Q379.46-11.54 379.85-13.87L379.85-13.87L390.43-73.62L406.92-73.62L396.73-16.10L396.73-16.10Q396.63-15.52 396.63-14.94ZM455.03-14.94L455.03-14.94L455.03-14.94Q455.03-12.42 457.60-12.42L457.60-12.42L457.60-12.42Q460.17-12.42 461.91-13.39L461.91-13.39L461.43-2.43L461.43-2.43Q456.77 1.36 450.95 1.36L450.95 1.36L450.95 1.36Q440.28 1.36 439.12-6.40L439.12-6.40L439.12-6.40Q434.27 1.36 424.86 1.36L424.86 1.36L424.86 1.36Q408.95 1.36 408.95-12.32L408.95-12.32L408.95-12.32Q408.95-14.65 409.44-17.46L409.44-17.46L411.47-28.81L411.47-28.81Q413.03-37.54 418.60-42.73L418.60-42.73L418.60-42.73Q424.18-47.92 433.15-47.92L433.15-47.92L433.15-47.92Q442.13-47.92 445.33-43.75L445.33-43.75L445.81-46.66L460.56-46.66L455.12-16.10L455.12-16.10Q455.03-15.52 455.03-14.94ZM427.58-26.87L426.31-19.59L426.31-19.59Q426.12-18.72 426.12-17.17L426.12-17.17L426.12-17.17Q426.12-15.62 427.58-14.11L427.58-14.11L427.58-14.11Q429.03-12.61 432.47-12.61L432.47-12.61L432.47-12.61Q435.92-12.61 438.44-15.33L438.44-15.33L441.35-31.62L441.35-31.62Q440.28-34.05 436.31-34.05L436.31-34.05L436.31-34.05Q428.84-34.05 427.58-26.87L427.58-26.87ZM513.42-14.94L513.42-14.94L513.42-14.94Q513.42-12.42 515.99-12.42L515.99-12.42L515.99-12.42Q518.56-12.42 520.31-13.39L520.31-13.39L519.82-2.43L519.82-2.43Q515.17 1.36 509.35 1.36L509.35 1.36L509.35 1.36Q498.68 1.36 497.51-6.40L497.51-6.40L497.51-6.40Q492.66 1.36 483.25 1.36L483.25 1.36L483.25 1.36Q467.35 1.36 467.35-12.32L467.35-12.32L467.35-12.32Q467.35-14.65 467.83-17.46L467.83-17.46L469.87-28.81L469.87-28.81Q471.42-37.54 477.00-42.73L477.00-42.73L477.00-42.73Q482.57-47.92 491.55-47.92L491.55-47.92L491.55-47.92Q500.52-47.92 503.72-43.75L503.72-43.75L504.21-46.66L518.95-46.66L513.52-16.10L513.52-16.10Q513.42-15.52 513.42-14.94ZM485.97-26.87L484.71-19.59L484.71-19.59Q484.51-18.72 484.51-17.17L484.51-17.17L484.51-17.17Q484.51-15.62 485.97-14.11L485.97-14.11L485.97-14.11Q487.42-12.61 490.87-12.61L490.87-12.61L490.87-12.61Q494.31-12.61 496.83-15.33L496.83-15.33L499.74-31.62L499.74-31.62Q498.68-34.05 494.70-34.05L494.70-34.05L494.70-34.05Q487.23-34.05 485.97-26.87L485.97-26.87ZM602.27 0L583.84 0L584.42-15.23L568.23-15.23L563.47 0L544.95 0L569.88-69.84L601.88-69.84L602.27 0ZM585.98-52.87L579.87-52.87L572.20-28.23L584.91-28.23L585.98-52.87ZM634.87-46.66L630.31-20.86L630.31-20.86Q630.01-19.11 630.01-17.36L630.01-17.36L630.01-17.36Q630.01-12.71 635.25-12.71L635.25-12.71L635.25-12.71Q639.52-12.71 642.33-15.71L642.33-15.71L647.77-46.66L664.26-46.66L655.72 1.55L655.72 1.55Q653.59 13.87 645.97 21.05L645.97 21.05L645.97 21.05Q638.36 28.23 628.56 28.23L628.56 28.23L628.56 28.23Q618.76 28.23 614.45 24.64L614.45 24.64L614.45 24.64Q610.13 21.05 610.13 15.23L610.13 15.23L610.13 15.23Q610.13 6.98 620.31 0.58L620.31 0.58L620.31 0.58Q614.79-0.78 613.33-4.95L613.33-4.95L613.33-4.95Q612.46-7.28 612.46-10.19L612.46-10.19L612.46-10.19Q612.46-13.10 612.94-16.10L612.94-16.10L618.38-46.66L634.87-46.66ZM630.79 14.36L630.79 14.36L630.79 14.36Q637.10 14.36 639.04 2.91L639.04 2.91L640.01-2.72L640.01-2.72Q626.52 3.59 626.52 9.99L626.52 9.99L626.52 9.99Q626.52 11.93 627.64 13.14L627.64 13.14L627.64 13.14Q628.75 14.36 630.79 14.36ZM747.38-12.42L747.38-12.42L747.38-12.42Q749.62-12.42 751.36-13.39L751.36-13.39L750.88-2.43L750.88-2.43Q746.32 1.36 740.50 1.36L740.50 1.36L740.50 1.36Q727.31 1.36 727.31-9.70L727.31-9.70L727.31-9.70Q727.31-11.64 727.69-13.87L727.69-13.87L729.73-25.80L729.73-25.80Q730.02-27.55 730.02-29.29L730.02-29.29L730.02-29.29Q730.02-33.95 724.93-33.95L724.93-33.95L724.93-33.95Q719.84-33.95 716.93-29.97L716.93-29.97L711.69 0L695.20 0L699.76-25.80L699.76-25.80Q700.05-27.55 700.05-29.29L700.05-29.29L700.05-29.29Q700.05-33.95 694.81-33.95L694.81-33.95L694.81-33.95Q690.64-33.95 687.63-30.75L687.63-30.75L682.20 0L665.71 0L673.96-46.66L689.28-46.66L688.21-40.84L688.21-40.84Q694.03-48.02 702.96-48.02L702.96-48.02L702.96-48.02Q715.57-48.02 717.31-39.67L717.31-39.67L717.31-39.67Q723.13-48.02 732.88-48.02L732.88-48.02L732.88-48.02Q742.63-48.02 745.54-43.65L745.54-43.65L745.54-43.65Q747.48-40.64 747.48-37.05L747.48-37.05L747.48-37.05Q747.48-33.47 747.00-30.55L747.00-30.55L744.57-16.10L744.57-16.10Q744.47-15.52 744.47-15.04L744.47-15.04L744.47-15.04Q744.47-12.42 747.38-12.42ZM802.58-14.94L802.58-14.94L802.58-14.94Q802.58-12.42 805.15-12.42L805.15-12.42L805.15-12.42Q807.72-12.42 809.46-13.39L809.46-13.39L808.98-2.43L808.98-2.43Q804.32 1.36 798.50 1.36L798.50 1.36L798.50 1.36Q787.83 1.36 786.67-6.40L786.67-6.40L786.67-6.40Q781.82 1.36 772.41 1.36L772.41 1.36L772.41 1.36Q756.50 1.36 756.50-12.32L756.50-12.32L756.50-12.32Q756.50-14.65 756.99-17.46L756.99-17.46L759.02-28.81L759.02-28.81Q760.58-37.54 766.15-42.73L766.15-42.73L766.15-42.73Q771.73-47.92 780.70-47.92L780.70-47.92L780.70-47.92Q789.68-47.92 792.88-43.75L792.88-43.75L793.36-46.66L808.11-46.66L802.67-16.10L802.67-16.10Q802.58-15.52 802.58-14.94ZM775.13-26.87L773.87-19.59L773.87-19.59Q773.67-18.72 773.67-17.17L773.67-17.17L773.67-17.17Q773.67-15.62 775.13-14.11L775.13-14.11L775.13-14.11Q776.58-12.61 780.03-12.61L780.03-12.61L780.03-12.61Q783.47-12.61 785.99-15.33L785.99-15.33L788.90-31.62L788.90-31.62Q787.83-34.05 783.86-34.05L783.86-34.05L783.86-34.05Q776.39-34.05 775.13-26.87L775.13-26.87ZM846.71-29.78L846.71-29.78L846.71-29.78Q846.71-33.95 842.69-33.95L842.69-33.95L842.69-33.95Q838.66-33.95 836.04-30.94L836.04-30.94L830.61 0L814.12 0L822.37-46.66L837.69-46.66L836.62-40.93L836.62-40.93Q842.35-48.02 851.08-48.02L851.08-48.02L851.08-48.02Q859.81-48.02 862.43-43.75L862.43-43.75L862.43-43.75Q864.08-41.03 864.08-37.54L864.08-37.54L864.08-37.54Q864.08-34.05 863.59-31.04L863.59-31.04L860.97-16.10L860.97-16.10Q860.87-15.52 860.87-15.04L860.87-15.04L860.87-15.04Q860.87-12.42 863.78-12.42L863.78-12.42L863.78-12.42Q866.02-12.42 867.76-13.39L867.76-13.39L867.28-2.43L867.28-2.43Q862.72 1.36 856.90 1.36L856.90 1.36L856.90 1.36Q843.71 1.36 843.71-9.70L843.71-9.70L843.71-9.70Q843.71-11.64 844.09-13.87L844.09-13.87L846.42-26.77L846.42-26.77Q846.71-28.52 846.71-29.78Z" fill="none" stroke="#ffffff" stroke-width="2.1"></path></g></g></g><style>text {
  font-size: 64px;
  font-family: Arial Black;
  dominant-baseline: central;
  text-anchor: middle;
}</style></svg>